<?xml version="1.0" encoding="utf-8"?>
<!-- Generator: Adobe Illustrator 26.0.3, SVG Export Plug-In . SVG Version: 6.00 Build 0)  -->
<svg version="1.1" id="Layer_1" xmlns="http://www.w3.org/2000/svg" xmlns:xlink="http://www.w3.org/1999/xlink" x="0px" y="0px"
	 viewBox="0 0 720 720" style="enable-background:new 0 0 720 720;" xml:space="preserve">
<style type="text/css">
	.st0{clip-path:url(#SVGID_00000044161188805815842990000007192840350714202250_);fill:#231F20;}
	.st1{clip-path:url(#SVGID_00000044161188805815842990000007192840350714202250_);fill:none;stroke:#FFFFFF;}
	.st2{clip-path:url(#SVGID_00000044161188805815842990000007192840350714202250_);}
	.st3{clip-path:url(#SVGID_00000044161188805815842990000007192840350714202250_);fill:none;stroke:#43B64B;stroke-width:2;}
	.st4{fill:#43B64B;}
	.st5{fill:none;stroke:#231F20;}
	.st6{clip-path:url(#SVGID_00000042697776067276749650000008231315628260472486_);fill:#231F20;}
	.st7{clip-path:url(#SVGID_00000042697776067276749650000008231315628260472486_);fill:none;stroke:#FFFFFF;stroke-width:2;}
	.st8{fill:none;stroke:#FFFFFF;stroke-width:2;}
	.st9{clip-path:url(#SVGID_00000041278129150645708330000009589303172594972306_);fill:#231F20;}
	.st10{clip-path:url(#SVGID_00000041278129150645708330000009589303172594972306_);fill:none;stroke:#231F20;}
	.st11{clip-path:url(#SVGID_00000041278129150645708330000009589303172594972306_);fill:#FFFFFF;}
	.st12{fill:none;stroke:#231F20;stroke-width:2;}
	.st13{clip-path:url(#SVGID_00000180368786712587016980000017864747947274446780_);fill:#231F20;}
	.st14{clip-path:url(#SVGID_00000180368786712587016980000017864747947274446780_);fill:none;stroke:#FFFFFF;}
	.st15{clip-path:url(#SVGID_00000180368786712587016980000017864747947274446780_);fill:none;stroke:#231F20;stroke-width:2;}
	.st16{clip-path:url(#SVGID_00000180368786712587016980000017864747947274446780_);fill:#FFFFFF;}
	.st17{clip-path:url(#SVGID_00000180368786712587016980000017864747947274446780_);fill:none;stroke:#FFFFFF;stroke-width:2;}
	.st18{clip-path:url(#SVGID_00000053510632848723451830000004965038862508900763_);fill:#231F20;}
	.st19{clip-path:url(#SVGID_00000053510632848723451830000004965038862508900763_);fill:none;stroke:#FFFFFF;stroke-width:2;}
	.st20{clip-path:url(#SVGID_00000152985699086073137860000008733682408971764640_);fill:none;stroke:#231F20;stroke-width:2;}
	.st21{clip-path:url(#SVGID_00000022542238520925717830000015766896853908850861_);fill:none;stroke:#231F20;stroke-width:2;}
	.st22{fill:none;stroke:#231F20;stroke-width:3;}
	.st23{clip-path:url(#SVGID_00000168798260794610734890000007780185822198790585_);fill:none;stroke:#231F20;stroke-width:3;}
	.st24{clip-path:url(#SVGID_00000168798260794610734890000007780185822198790585_);fill:none;stroke:#231F20;stroke-width:2;}
	.st25{fill:#231F20;}
	.st26{font-family:'Blenny-Black';}
	.st27{font-size:47.9877px;}
	.st28{font-size:47.9876px;}
	.st29{clip-path:url(#SVGID_00000153664452209809713630000015737023474768186794_);}
	.st30{clip-path:url(#SVGID_00000139273200068887776090000015324909939087551910_);}
	.st31{font-size:53.7462px;}
	.st32{font-size:53.7461px;}
</style>
<g>
	<defs>
		<rect id="SVGID_1_" x="118.7" y="121.6" width="467.7" height="503.4"/>
	</defs>
	<clipPath id="SVGID_00000085215991045120801640000004129859027206521744_">
		<use xlink:href="#SVGID_1_"  style="overflow:visible;"/>
	</clipPath>
	<path style="clip-path:url(#SVGID_00000085215991045120801640000004129859027206521744_);fill:#231F20;" d="M286.7,331.8l-0.6,23.5
		c0,0-16.3-2.5-25.1-11.4c-11.4-11.4-11.7-27.2-11.7-27.2l4.5-1.1c0,0-13.4,3.3-12.9-11.1c-7.5-5.7-9.7-15-6.9-17.7
		c4-3.8,6.6-1.8,6.6-1.8s-0.6-11.4,10.8-7.8c8.4-9.3,21.5-5.4,21.5,13.2c7.2,6.6,4.2,16.2,0,23.5
		C273.6,321.6,274.2,327.9,286.7,331.8"/>
	<path style="clip-path:url(#SVGID_00000085215991045120801640000004129859027206521744_);fill:none;stroke:#FFFFFF;" d="
		M286.7,331.8l-0.6,23.5c0,0-16.3-2.5-25.1-11.4c-11.4-11.4-11.7-27.2-11.7-27.2l4.5-1.1c0,0-13.4,3.3-12.9-11.1
		c-7.5-5.7-9.7-15-6.9-17.7c4-3.8,6.6-1.8,6.6-1.8s-0.6-11.4,10.8-7.8c8.4-9.3,21.5-5.4,21.5,13.2c7.2,6.6,4.2,16.2,0,23.5
		C273.6,321.6,274.2,327.9,286.7,331.8z"/>
	<path style="clip-path:url(#SVGID_00000085215991045120801640000004129859027206521744_);fill:#231F20;" d="M256.9,310.1
		c0,0-9.7-9.3,6.2-13.7c-13.3,5-15.9-4.1-8.8-7.3c8.3-3.8,18.6,0.9,18.6,0.9"/>
	<path style="clip-path:url(#SVGID_00000085215991045120801640000004129859027206521744_);fill:none;stroke:#FFFFFF;" d="
		M256.9,310.1c0,0-9.7-9.3,6.2-13.7c-13.3,5-15.9-4.1-8.8-7.3c8.3-3.8,18.6,0.9,18.6,0.9"/>
	<path style="clip-path:url(#SVGID_00000085215991045120801640000004129859027206521744_);fill:#231F20;" d="M261.7,279.4
		c0,0,0.5,4.6,0.5,6.5"/>
	<path style="clip-path:url(#SVGID_00000085215991045120801640000004129859027206521744_);fill:none;stroke:#FFFFFF;" d="
		M261.7,279.4c0,0,0.5,4.6,0.5,6.5"/>
	<path style="clip-path:url(#SVGID_00000085215991045120801640000004129859027206521744_);fill:#231F20;" d="M251.6,276.4
		c0,0-0.1,9.3,1.2,11.1"/>
	<path style="clip-path:url(#SVGID_00000085215991045120801640000004129859027206521744_);fill:none;stroke:#FFFFFF;" d="
		M251.6,276.4c0,0-0.1,9.3,1.2,11.1"/>
	<path style="clip-path:url(#SVGID_00000085215991045120801640000004129859027206521744_);fill:#231F20;" d="M240.7,283.8
		c0,0,2.6,18.7,12,14.1"/>
	<path style="clip-path:url(#SVGID_00000085215991045120801640000004129859027206521744_);fill:none;stroke:#FFFFFF;" d="
		M240.7,283.8c0,0,2.6,18.7,12,14.1"/>
	<path style="clip-path:url(#SVGID_00000085215991045120801640000004129859027206521744_);fill:#231F20;" d="M240.2,303.3
		c0,0,5.6-0.6,6.8-3.8"/>
	<path style="clip-path:url(#SVGID_00000085215991045120801640000004129859027206521744_);fill:none;stroke:#FFFFFF;" d="
		M240.2,303.3c0,0,5.6-0.6,6.8-3.8"/>
	<path style="clip-path:url(#SVGID_00000085215991045120801640000004129859027206521744_);" d="M311.4,231c-12.7,0-23,10.3-23,23
		v178.1c0,12.7,10.3,23,23,23h87.7c12.7,0,23-10.3,23-23V254c0-12.7-10.3-23-23-23H311.4z"/>
	
		<path style="clip-path:url(#SVGID_00000085215991045120801640000004129859027206521744_);fill:none;stroke:#43B64B;stroke-width:2;" d="
		M311.4,231c-12.7,0-23,10.3-23,23v178.1c0,12.7,10.3,23,23,23h87.7c12.7,0,23-10.3,23-23V254c0-12.7-10.3-23-23-23H311.4z"/>
</g>
<rect x="299.1" y="241.5" class="st4" width="111.1" height="198.6"/>
<rect x="299.1" y="241.5" class="st5" width="111.1" height="198.6"/>
<g>
	<defs>
		<rect id="SVGID_00000030452134071235152260000004584415381597909122_" x="118.7" y="121.6" width="467.7" height="503.4"/>
	</defs>
	<clipPath id="SVGID_00000058552997049130533510000011073776038059962036_">
		<use xlink:href="#SVGID_00000030452134071235152260000004584415381597909122_"  style="overflow:visible;"/>
	</clipPath>
	<path style="clip-path:url(#SVGID_00000058552997049130533510000011073776038059962036_);fill:#231F20;" d="M324.4,312
		c7.7,0,13.9-6.2,13.9-13.9c0-7.7-6.2-13.9-13.9-13.9s-13.9,6.2-13.9,13.9C310.5,305.8,316.8,312,324.4,312"/>
	
		<path style="clip-path:url(#SVGID_00000058552997049130533510000011073776038059962036_);fill:none;stroke:#FFFFFF;stroke-width:2;" d="
		M324.4,312c7.7,0,13.9-6.2,13.9-13.9c0-7.7-6.2-13.9-13.9-13.9s-13.9,6.2-13.9,13.9C310.5,305.8,316.8,312,324.4,312z"/>
</g>
<line class="st8" x1="339.8" y1="299.1" x2="324.4" y2="299.1"/>
<g>
	<defs>
		<rect id="SVGID_00000132769636305508276680000004337361501327911612_" x="118.7" y="121.6" width="467.7" height="503.4"/>
	</defs>
	<clipPath id="SVGID_00000149350833959078325960000004068311798483424147_">
		<use xlink:href="#SVGID_00000132769636305508276680000004337361501327911612_"  style="overflow:visible;"/>
	</clipPath>
	<path style="clip-path:url(#SVGID_00000149350833959078325960000004068311798483424147_);fill:#231F20;" d="M356.5,375.4
		c4.2,0,7.6-3.5,7.6-7.8c0-4.3-3.4-7.8-7.6-7.8c-4.2,0-7.6,3.5-7.6,7.8C348.9,372,352.3,375.4,356.5,375.4"/>
	
		<ellipse style="clip-path:url(#SVGID_00000149350833959078325960000004068311798483424147_);fill:none;stroke:#231F20;" cx="356.5" cy="367.7" rx="7.6" ry="7.8"/>
	<path style="clip-path:url(#SVGID_00000149350833959078325960000004068311798483424147_);fill:#FFFFFF;" d="M357.5,411.9
		c7.7,0,14-6.3,14-14c0-7.7-6.3-14-14-14c-7.7,0-14,6.3-14,14C343.5,405.6,349.8,411.9,357.5,411.9"/>
	<path style="clip-path:url(#SVGID_00000149350833959078325960000004068311798483424147_);fill:none;stroke:#231F20;" d="
		M357.5,411.9c7.7,0,14-6.3,14-14c0-7.7-6.3-14-14-14c-7.7,0-14,6.3-14,14C343.5,405.6,349.8,411.9,357.5,411.9z"/>
</g>
<line class="st12" x1="196.7" y1="402.3" x2="216.8" y2="394.2"/>
<g>
	<defs>
		<rect id="SVGID_00000150821946022075491410000018349772686785156010_" x="118.7" y="121.6" width="467.7" height="503.4"/>
	</defs>
	<clipPath id="SVGID_00000109019664253470160930000001319160076810687107_">
		<use xlink:href="#SVGID_00000150821946022075491410000018349772686785156010_"  style="overflow:visible;"/>
	</clipPath>
	<path style="clip-path:url(#SVGID_00000109019664253470160930000001319160076810687107_);fill:#231F20;" d="M413.8,296.6
		c0,0-10.2,12-4.2,19.2c6,7.2,13.7,3.2,18.9-1.2c9.6-8.1,17.1-2.4,14.7,5.1c-3.7,11.5-12.3,38.2,4.5,28.8c2.4,9,12.3,8.1,13.5,0.9
		c4.2,5.4,11,11.3,15.6-3c3.4-10.5-3.6-16.8-6-13.2c-2.4,3.6-1.2,12-1.2,12s1.8-15-5.4-16.8c0.6-11.4,5.4-34.7-11.4-42.1
		C427.7,275.3,413.8,296.6,413.8,296.6"/>
	<path style="clip-path:url(#SVGID_00000109019664253470160930000001319160076810687107_);fill:none;stroke:#FFFFFF;" d="
		M413.8,296.6c0,0-10.2,12-4.2,19.2c6,7.2,13.7,3.2,18.9-1.2c9.6-8.1,17.1-2.4,14.7,5.1c-3.7,11.5-12.3,38.2,4.5,28.8
		c2.4,9,12.3,8.1,13.5,0.9c4.2,5.4,11,11.3,15.6-3c3.4-10.5-3.6-16.8-6-13.2c-2.4,3.6-1.2,12-1.2,12s1.8-15-5.4-16.8
		c0.6-11.4,5.4-34.7-11.4-42.1C427.7,275.3,413.8,296.6,413.8,296.6z"/>
	
		<path style="clip-path:url(#SVGID_00000109019664253470160930000001319160076810687107_);fill:none;stroke:#231F20;stroke-width:2;" d="
		M468.6,464.3c0,0-34.3-5-32.6,21c4.7,5.3,32.2,10.1,48.1-8.6c10-13.6,1.8-22.8,1.8-22.8s11.7-29-4.7-33.1
		c-16.4,0.6-17.9,2.1-18.8,2.7c-0.9,0.6-6.2,2.7-7,2.7c7,5.6,0.2,29.9,0.2,29.9s5.1,0.4,5.1,3.8c-0.1,4.1-1.5,3.8-1.5,3.8
		L468.6,464.3z"/>
	
		<path style="clip-path:url(#SVGID_00000109019664253470160930000001319160076810687107_);fill:none;stroke:#231F20;stroke-width:2;" d="
		M435.5,486.6l-0.3,4.8c0,0,3.4,10.2,30.2,5.4c26.8-4.8,29.5-18.1,30.4-20.8s4.1-12.5-3.5-25.2c5.6-3.3,6.5-7.7,5.6-14.5
		c-0.9-6.8-1.2-18.3-11.8-17.9c-3.5,0.4-4,1.8-4,1.8s16.1,6.6,5.2,33c3.5,6.5,5.2,14.5-1.2,23.8
		C479.6,486.2,463.8,495.5,435.5,486.6z"/>
	
		<path style="clip-path:url(#SVGID_00000109019664253470160930000001319160076810687107_);fill:none;stroke:#231F20;stroke-width:2;" d="
		M452.1,426.3c0,0,6.7,1.4,0.5,28.6c-7.5-0.3-8-1.1-8-1.1s-3.4-14.7,0.8-26.6C449,427.7,452.6,426.3,452.1,426.3z"/>
	<path style="clip-path:url(#SVGID_00000109019664253470160930000001319160076810687107_);fill:#231F20;" d="M466.8,454.3
		c0.7-0.5,0.8-1.8,0.2-2.8c-0.6-1.1-1.7-1.5-2.5-1c-0.7,0.5-0.8,1.8-0.2,2.8C464.9,454.3,466,454.8,466.8,454.3"/>
	
		<path style="clip-path:url(#SVGID_00000109019664253470160930000001319160076810687107_);fill:none;stroke:#231F20;stroke-width:2;" d="
		M466.8,454.3c0.7-0.5,0.8-1.8,0.2-2.8c-0.6-1.1-1.7-1.5-2.5-1c-0.7,0.5-0.8,1.8-0.2,2.8C464.9,454.3,466,454.8,466.8,454.3z"/>
	<path style="clip-path:url(#SVGID_00000109019664253470160930000001319160076810687107_);fill:#231F20;" d="M470.5,465.2
		c0.8,0,1.5-1.2,1.5-2.8s-0.7-2.8-1.5-2.8s-1.5,1.2-1.5,2.8S469.7,465.2,470.5,465.2"/>
	
		<path style="clip-path:url(#SVGID_00000109019664253470160930000001319160076810687107_);fill:none;stroke:#231F20;stroke-width:2;" d="
		M470.5,465.2c0.8,0,1.5-1.2,1.5-2.8s-0.7-2.8-1.5-2.8s-1.5,1.2-1.5,2.8S469.7,465.2,470.5,465.2z"/>
	<path style="clip-path:url(#SVGID_00000109019664253470160930000001319160076810687107_);fill:#231F20;" d="M442.8,449.9
		c0,0-36.6-4.9-43-24.1c-6.4-19.2,10.2-16.2,10.7-16.2c0.5,0,3.1,0,12.5,7.6c9.5,7.6,20.1,9.5,20.1,9.5S441,443.5,442.8,449.9"/>
	
		<path style="clip-path:url(#SVGID_00000109019664253470160930000001319160076810687107_);fill:none;stroke:#231F20;stroke-width:2;" d="
		M208,392.4c0,0-25.8,10.8-3,46c11,20,21.3,24.5,21.3,24.5l-3,2.7c0,0,24.9,36.1,39.7,26.3c14.8-9.9-14.8-32-21-43
		C235.9,437.8,229.6,385.6,208,392.4z"/>
	
		<path style="clip-path:url(#SVGID_00000109019664253470160930000001319160076810687107_);fill:none;stroke:#231F20;stroke-width:2;" d="
		M208.8,391.8c0,0,17.3-11.7,24.4,9.6c7.1,21.2,9.2,35.8,11.9,40.3c2.7,4.5,10.4,14,19,20.9c5.9,4.7,12.1,16.2,4.8,24.5
		c-4.9,5.6-3.8,3.5-3.8,3.5s9.5-5.3-2.4-19.7c-11.9-14.3-18.7-20.9-18.7-20.9s-3.3-1.8-11-32.3C225.2,387.3,208.8,391.8,208.8,391.8
		z"/>
	
		<path style="clip-path:url(#SVGID_00000109019664253470160930000001319160076810687107_);fill:none;stroke:#231F20;stroke-width:2;" d="
		M228.9,390.2c2.1-2.1,19.4,2.4,21.4,16.2c2,13.8,2.6,25.5,8.3,27.3c-4.3-4.7-4-9.1-4-9.1l6.6-4.1l23,22.3c0,0-2.6,1.3-2.6,5.3
		c0,4-2.6,18.6-8.9,25.4c-2.9-11.4-18.3-21.7-23.3-29.8C243.3,441.1,236.9,396.5,228.9,390.2z"/>
	<path style="clip-path:url(#SVGID_00000109019664253470160930000001319160076810687107_);fill:#231F20;" d="M265.6,437.8
		c1.3,0,2.4-1.2,2.4-2.8c0-1.5-1.1-2.8-2.4-2.8c-1.3,0-2.4,1.2-2.4,2.8C263.2,436.6,264.2,437.8,265.6,437.8"/>
	
		<path style="clip-path:url(#SVGID_00000109019664253470160930000001319160076810687107_);fill:none;stroke:#231F20;stroke-width:2;" d="
		M265.6,437.8c1.3,0,2.4-1.2,2.4-2.8c0-1.5-1.1-2.8-2.4-2.8c-1.3,0-2.4,1.2-2.4,2.8C263.2,436.6,264.2,437.8,265.6,437.8z"/>
	<path style="clip-path:url(#SVGID_00000109019664253470160930000001319160076810687107_);fill:#FFFFFF;" d="M264.3,421l4.1-5.4
		c0,0,16.5,8.1,19.8,19.8c-2.7,3.5-3.3,4.3-3.3,4.3L264.3,421z"/>
	
		<path style="clip-path:url(#SVGID_00000109019664253470160930000001319160076810687107_);fill:none;stroke:#231F20;stroke-width:2;" d="
		M264.3,421l4.1-5.4c0,0,16.5,8.1,19.8,19.8c-2.7,3.5-3.3,4.3-3.3,4.3L264.3,421z"/>
	<path style="clip-path:url(#SVGID_00000109019664253470160930000001319160076810687107_);fill:#231F20;" d="M271.4,415.3
		c0,0,7.3-20.3,16.5-26.1c9.1-5.8,12.8-5.5,19.5-2.4c6.7,3,25.6,23.5,20.6,32.6c-5,9.1-20.9,12.8-30-10.1
		c-1.2,7.3-5.2,12.5-5.2,12.5l-5.8,6.7C286.9,428.6,277.2,417.6,271.4,415.3"/>
	<path style="clip-path:url(#SVGID_00000109019664253470160930000001319160076810687107_);fill:#231F20;" d="M388.3,312
		c7.7,0,13.9-6.2,13.9-13.9c0-7.7-6.2-13.9-13.9-13.9c-7.7,0-13.9,6.2-13.9,13.9C374.4,305.8,380.6,312,388.3,312"/>
	
		<path style="clip-path:url(#SVGID_00000109019664253470160930000001319160076810687107_);fill:none;stroke:#FFFFFF;stroke-width:2;" d="
		M388.3,312c7.7,0,13.9-6.2,13.9-13.9c0-7.7-6.2-13.9-13.9-13.9c-7.7,0-13.9,6.2-13.9,13.9C374.4,305.8,380.6,312,388.3,312z"/>
</g>
<line class="st8" x1="373" y1="299" x2="388.3" y2="299"/>
<g>
	<defs>
		<rect id="SVGID_00000150063901769776616550000012068529335857691583_" x="118.7" y="121.6" width="467.7" height="503.4"/>
	</defs>
	<clipPath id="SVGID_00000112601493032580681370000003085874701864060835_">
		<use xlink:href="#SVGID_00000150063901769776616550000012068529335857691583_"  style="overflow:visible;"/>
	</clipPath>
	<path style="clip-path:url(#SVGID_00000112601493032580681370000003085874701864060835_);fill:#231F20;" d="M356,250.6
		c-7.7,0-13.9,6.2-13.9,13.9c0,7.7,6.2,13.9,13.9,13.9s13.9-6.2,13.9-13.9C369.9,256.8,363.7,250.6,356,250.6"/>
	
		<path style="clip-path:url(#SVGID_00000112601493032580681370000003085874701864060835_);fill:none;stroke:#FFFFFF;stroke-width:2;" d="
		M356,250.6c-7.7,0-13.9,6.2-13.9,13.9c0,7.7,6.2,13.9,13.9,13.9s13.9-6.2,13.9-13.9C369.9,256.8,363.7,250.6,356,250.6z"/>
</g>
<line class="st8" x1="356" y1="279.6" x2="356" y2="264.3"/>
<g>
	<defs>
		<rect id="SVGID_00000165946278657577523570000005046716726679866303_" x="118.7" y="121.6" width="467.7" height="503.4"/>
	</defs>
	<clipPath id="SVGID_00000067209305484497095120000016402562990942956166_">
		<use xlink:href="#SVGID_00000165946278657577523570000005046716726679866303_"  style="overflow:visible;"/>
	</clipPath>
	
		<path style="clip-path:url(#SVGID_00000067209305484497095120000016402562990942956166_);fill:none;stroke:#231F20;stroke-width:2;" d="
		M194.6,413.6c0,0,25.3-12.3,30-12.3"/>
	
		<path style="clip-path:url(#SVGID_00000067209305484497095120000016402562990942956166_);fill:none;stroke:#231F20;stroke-width:2;" d="
		M196.7,421.7c0,0,29.3-13.1,32.3-13.1"/>
</g>
<line class="st12" x1="201.3" y1="430.3" x2="230.6" y2="415.9"/>
<line class="st12" x1="206.1" y1="438.1" x2="233.4" y2="422.9"/>
<line class="st12" x1="210.7" y1="445.4" x2="234.8" y2="430.2"/>
<line class="st12" x1="215.2" y1="452.6" x2="236.8" y2="438"/>
<line class="st12" x1="220.8" y1="457.4" x2="240" y2="445.3"/>
<line class="st12" x1="227" y1="461.9" x2="242.8" y2="452"/>
<line class="st12" x1="229.5" y1="472.1" x2="247.1" y2="457.2"/>
<g>
	<defs>
		<rect id="SVGID_00000029755573662604559060000017521433960587590543_" x="118.7" y="121.6" width="467.7" height="503.4"/>
	</defs>
	<clipPath id="SVGID_00000071536690514471474790000016896001975933805218_">
		<use xlink:href="#SVGID_00000029755573662604559060000017521433960587590543_"  style="overflow:visible;"/>
	</clipPath>
	
		<path style="clip-path:url(#SVGID_00000071536690514471474790000016896001975933805218_);fill:none;stroke:#231F20;stroke-width:2;" d="
		M235.9,478.3c0,0,14.7-13.1,19.2-13.2"/>
	
		<path style="clip-path:url(#SVGID_00000071536690514471474790000016896001975933805218_);fill:none;stroke:#231F20;stroke-width:2;" d="
		M241.1,484.4c0,0,13.9-12.9,17.7-13.5"/>
	
		<path style="clip-path:url(#SVGID_00000071536690514471474790000016896001975933805218_);fill:none;stroke:#231F20;stroke-width:2;" d="
		M247.6,489.2c0,0,12.2-12.6,14.7-13.8"/>
</g>
<line class="st12" x1="254.7" y1="492.5" x2="266.6" y2="482.6"/>
<line class="st22" x1="256.2" y1="425.4" x2="261.1" y2="430.5"/>
<line class="st22" x1="458.6" y1="456" x2="466.8" y2="455"/>
<g>
	<defs>
		<rect id="SVGID_00000026122821806023333980000001362973795823839668_" x="118.7" y="121.6" width="467.7" height="503.4"/>
	</defs>
	<clipPath id="SVGID_00000172400976129406590040000015934624419954380223_">
		<use xlink:href="#SVGID_00000026122821806023333980000001362973795823839668_"  style="overflow:visible;"/>
	</clipPath>
	
		<path style="clip-path:url(#SVGID_00000172400976129406590040000015934624419954380223_);fill:none;stroke:#231F20;stroke-width:3;" d="
		M194.3,385.5c0,0,6.4-11.8,2.3-25.9c5.2,7.6,12.2,14.7,19.2-7.1c2.3,24.7,5.5,23.5,18,4.7c-4.6,20.6-0.6,28.2,10.5,18.2"/>
	
		<path style="clip-path:url(#SVGID_00000172400976129406590040000015934624419954380223_);fill:none;stroke:#231F20;stroke-width:2;" d="
		M481,405.7c0,0,10.6-12.5,12.7-27.9"/>
	
		<path style="clip-path:url(#SVGID_00000172400976129406590040000015934624419954380223_);fill:none;stroke:#231F20;stroke-width:2;" d="
		M494.3,403.2c0,0,4.1-3.5,5.5-15"/>
</g>
<text transform="matrix(0.6999 -0.7143 0.7143 0.6999 202.7739 226.8372)" class="st25 st26 st27">P</text>
<text transform="matrix(0.8109 -0.5852 0.5852 0.8109 229.8342 199.1465)" class="st25 st26 st28">E</text>
<g>
	<defs>
		<rect id="SVGID_00000169539631584586871100000017804953563638634389_" x="118.7" y="121.6" width="467.7" height="503.4"/>
	</defs>
	<clipPath id="SVGID_00000107585682844573432730000014351654327401148045_">
		<use xlink:href="#SVGID_00000169539631584586871100000017804953563638634389_"  style="overflow:visible;"/>
	</clipPath>
	<g style="clip-path:url(#SVGID_00000107585682844573432730000014351654327401148045_);">
		<text transform="matrix(0.9126 -0.4088 0.4088 0.9126 261.3624 176.6232)" class="st25 st26 st27">D</text>
	</g>
	<g style="clip-path:url(#SVGID_00000107585682844573432730000014351654327401148045_);">
		<text transform="matrix(0.9786 -0.2056 0.2056 0.9786 296.9279 160.6898)" class="st25 st26 st27">A</text>
	</g>
	<g style="clip-path:url(#SVGID_00000107585682844573432730000014351654327401148045_);">
		<text transform="matrix(0.9999 1.387196e-02 -1.387196e-02 0.9999 335.9173 152.3759)" class="st25 st26 st27">L</text>
	</g>
	<g style="clip-path:url(#SVGID_00000107585682844573432730000014351654327401148045_);">
		<text transform="matrix(0.9786 0.2056 -0.2056 0.9786 373.7188 152.6467)" class="st25 st26 st27">B</text>
	</g>
	<g style="clip-path:url(#SVGID_00000107585682844573432730000014351654327401148045_);">
		<text transform="matrix(0.9126 0.4088 -0.4088 0.9126 412.5689 160.9462)" class="st25 st26 st27">O</text>
	</g>
</g>
<text transform="matrix(0.8109 0.5852 -0.5852 0.8109 449.0871 177.4928)" class="st25 st26 st28">A</text>
<text transform="matrix(0.6826 0.7308 -0.7308 0.6826 481.2972 200.8759)" class="st25 st26 st28">R</text>
<text transform="matrix(0.5539 0.8326 -0.8326 0.5539 508.4057 230.5702)" class="st25 st26 st28">D</text>
<g>
	<defs>
		<rect id="SVGID_00000163037676808164487510000014207254923766964631_" x="118.7" y="121.6" width="467.7" height="503.4"/>
	</defs>
	<clipPath id="SVGID_00000041296794689768603030000003529359874780574888_">
		<use xlink:href="#SVGID_00000163037676808164487510000014207254923766964631_"  style="overflow:visible;"/>
	</clipPath>
	<g style="clip-path:url(#SVGID_00000041296794689768603030000003529359874780574888_);">
		<text transform="matrix(0.8902 0.4557 -0.4557 0.8902 246.4889 563.5058)" class="st25 st26 st31">B</text>
	</g>
	<g style="clip-path:url(#SVGID_00000041296794689768603030000003529359874780574888_);">
		<text transform="matrix(0.9727 0.2322 -0.2322 0.9727 286.1688 583.7436)" class="st25 st26 st32">U</text>
	</g>
	<g style="clip-path:url(#SVGID_00000041296794689768603030000003529359874780574888_);">
		<text transform="matrix(0.9999 -1.387143e-02 1.387143e-02 0.9999 331.0149 594.1976)" class="st25 st26 st31">D</text>
	</g>
	<g style="clip-path:url(#SVGID_00000041296794689768603030000003529359874780574888_);">
		<text transform="matrix(0.966 -0.2584 0.2584 0.966 376.589 593.4616)" class="st25 st26 st32">D</text>
	</g>
	<g style="clip-path:url(#SVGID_00000041296794689768603030000003529359874780574888_);">
		<text transform="matrix(0.8902 -0.4557 0.4557 0.8902 418.1608 582.181)" class="st25 st26 st31">Y</text>
	</g>
</g>
</svg>
