<?xml version="1.0" encoding="utf-8"?>
<!-- Generator: Adobe Illustrator 26.0.3, SVG Export Plug-In . SVG Version: 6.00 Build 0)  -->
<svg version="1.1" id="Layer_1" xmlns="http://www.w3.org/2000/svg" xmlns:xlink="http://www.w3.org/1999/xlink" x="0px" y="0px"
	 viewBox="0 0 720 720" style="enable-background:new 0 0 720 720;" xml:space="preserve">
<style type="text/css">
	.st0{clip-path:url(#SVGID_00000179618043747252081550000004782925885017819834_);fill:none;stroke:#231F20;stroke-width:2;}
	.st1{clip-path:url(#SVGID_00000179618043747252081550000004782925885017819834_);}
	.st2{clip-path:url(#SVGID_00000056396113417626700560000011342624831777709717_);fill:#231F20;}
	.st3{clip-path:url(#SVGID_00000056396113417626700560000011342624831777709717_);fill:none;stroke:#FFFFFF;}
	.st4{clip-path:url(#SVGID_00000056396113417626700560000011342624831777709717_);fill:#020100;}
	.st5{clip-path:url(#SVGID_00000056396113417626700560000011342624831777709717_);fill:none;stroke:#43B64B;stroke-width:2;}
	.st6{clip-path:url(#SVGID_00000179618043747252081550000004782925885017819834_);fill:#43B64D;}
	.st7{clip-path:url(#SVGID_00000140012893677597486230000018275886697849085106_);fill:#231F20;}
	.st8{clip-path:url(#SVGID_00000140012893677597486230000018275886697849085106_);fill:none;stroke:#FFFFFF;stroke-width:2;}
	.st9{clip-path:url(#SVGID_00000140012893677597486230000018275886697849085106_);fill:#D2232A;}
	.st10{opacity:0.8;clip-path:url(#SVGID_00000140012893677597486230000018275886697849085106_);}
	.st11{clip-path:url(#SVGID_00000041267623757974645600000009279146164399214245_);fill:#0B1A3E;}
	.st12{clip-path:url(#SVGID_00000179618043747252081550000004782925885017819834_);fill:#43B64B;}
	.st13{clip-path:url(#SVGID_00000057149974576407835730000000538162224760470664_);fill:#231F20;}
	.st14{clip-path:url(#SVGID_00000057149974576407835730000000538162224760470664_);fill:none;stroke:#FFFFFF;}
	.st15{clip-path:url(#SVGID_00000057149974576407835730000000538162224760470664_);fill:none;stroke:#231F20;stroke-width:2;}
	.st16{clip-path:url(#SVGID_00000057149974576407835730000000538162224760470664_);fill:#FFFFFF;}
	.st17{clip-path:url(#SVGID_00000179618043747252081550000004782925885017819834_);fill:none;stroke:#FFFFFF;stroke-width:2;}
	.st18{clip-path:url(#SVGID_00000063604226030817514600000011746189891154379671_);fill:none;stroke:#231F20;stroke-width:2;}
	.st19{clip-path:url(#SVGID_00000110450223341778277420000009665258637949859980_);fill:none;stroke:#231F20;stroke-width:2;}
	.st20{clip-path:url(#SVGID_00000179618043747252081550000004782925885017819834_);fill:none;stroke:#231F20;stroke-width:3;}
	.st21{clip-path:url(#SVGID_00000020392741585603869730000013499286570292028328_);fill:none;stroke:#231F20;stroke-width:3;}
	.st22{clip-path:url(#SVGID_00000020392741585603869730000013499286570292028328_);fill:none;stroke:#231F20;stroke-width:2;}
	.st23{fill:#231F20;}
	.st24{font-family:'Blenny-Black';}
	.st25{font-size:50.6566px;}
	.st26{font-size:50.6565px;}
	.st27{clip-path:url(#SVGID_00000125576339166490391710000006429680882351677579_);}
	.st28{font-size:50.6567px;}
	.st29{clip-path:url(#SVGID_00000125565945486644671670000013145850262599592609_);}
	.st30{font-size:56.7354px;}
	.st31{font-size:56.7353px;}
</style>
<g>
	<defs>
		<rect id="SVGID_1_" x="103.7" y="111.6" width="493.7" height="531.4"/>
	</defs>
	<clipPath id="SVGID_00000080924616151884678650000017231925641667017125_">
		<use xlink:href="#SVGID_1_"  style="overflow:visible;"/>
	</clipPath>
	
		<line style="clip-path:url(#SVGID_00000080924616151884678650000017231925641667017125_);fill:none;stroke:#231F20;stroke-width:2;" x1="193.5" y1="425.7" x2="214.3" y2="417.4"/>
	<g style="clip-path:url(#SVGID_00000080924616151884678650000017231925641667017125_);">
		<defs>
			<rect id="SVGID_00000124884640882985405700000004778276317215869056_" x="103.7" y="111.6" width="493.7" height="531.4"/>
		</defs>
		<clipPath id="SVGID_00000164508900022985538080000018084934936384168378_">
			<use xlink:href="#SVGID_00000124884640882985405700000004778276317215869056_"  style="overflow:visible;"/>
		</clipPath>
		<path style="clip-path:url(#SVGID_00000164508900022985538080000018084934936384168378_);fill:#231F20;" d="M286.5,352.9
			l-0.6,24.2c0,0-16.8-2.6-25.9-11.8c-11.7-11.8-12-28.1-12-28.1l4.6-1.1c0,0-13.9,3.4-13.3-11.5c-7.7-5.9-10-15.5-7.1-18.3
			c4.1-3.9,6.8-1.9,6.8-1.9s-0.6-11.8,11.1-8.1c8.6-9.6,22.2-5.6,22.2,13.7c7.4,6.8,4.3,16.8,0,24.2
			C272.9,342.4,273.5,348.9,286.5,352.9"/>
		<path style="clip-path:url(#SVGID_00000164508900022985538080000018084934936384168378_);fill:none;stroke:#FFFFFF;" d="
			M286.5,352.9l-0.6,24.2c0,0-16.8-2.6-25.9-11.8c-11.7-11.8-12-28.1-12-28.1l4.6-1.1c0,0-13.9,3.4-13.3-11.5
			c-7.7-5.9-10-15.5-7.1-18.3c4.1-3.9,6.8-1.9,6.8-1.9s-0.6-11.8,11.1-8.1c8.6-9.6,22.2-5.6,22.2,13.7c7.4,6.8,4.3,16.8,0,24.2
			C272.9,342.4,273.5,348.9,286.5,352.9z"/>
		<path style="clip-path:url(#SVGID_00000164508900022985538080000018084934936384168378_);fill:#231F20;" d="M255.7,330.6
			c0,0-10-9.6,6.4-14.1c-13.7,5.1-16.4-4.2-9.1-7.5c8.6-3.9,19.2,0.9,19.2,0.9"/>
		<path style="clip-path:url(#SVGID_00000164508900022985538080000018084934936384168378_);fill:none;stroke:#FFFFFF;" d="
			M255.7,330.6c0,0-10-9.6,6.4-14.1c-13.7,5.1-16.4-4.2-9.1-7.5c8.6-3.9,19.2,0.9,19.2,0.9"/>
		<path style="clip-path:url(#SVGID_00000164508900022985538080000018084934936384168378_);fill:#231F20;" d="M260.7,298.8
			c0,0,0.5,4.8,0.4,6.7"/>
		<path style="clip-path:url(#SVGID_00000164508900022985538080000018084934936384168378_);fill:none;stroke:#FFFFFF;" d="
			M260.7,298.8c0,0,0.5,4.8,0.4,6.7"/>
		<path style="clip-path:url(#SVGID_00000164508900022985538080000018084934936384168378_);fill:#231F20;" d="M250.3,295.8
			c0,0-0.1,9.6,1.2,11.4"/>
		<path style="clip-path:url(#SVGID_00000164508900022985538080000018084934936384168378_);fill:none;stroke:#FFFFFF;" d="
			M250.3,295.8c0,0-0.1,9.6,1.2,11.4"/>
		<path style="clip-path:url(#SVGID_00000164508900022985538080000018084934936384168378_);fill:#231F20;" d="M239,303.4
			c0,0,2.7,19.3,12.4,14.5"/>
		<path style="clip-path:url(#SVGID_00000164508900022985538080000018084934936384168378_);fill:none;stroke:#FFFFFF;" d="
			M239,303.4c0,0,2.7,19.3,12.4,14.5"/>
		<path style="clip-path:url(#SVGID_00000164508900022985538080000018084934936384168378_);fill:#231F20;" d="M238.4,323.6
			c0,0,5.7-0.6,7-3.9"/>
		<path style="clip-path:url(#SVGID_00000164508900022985538080000018084934936384168378_);fill:none;stroke:#FFFFFF;" d="
			M238.4,323.6c0,0,5.7-0.6,7-3.9"/>
		<path style="clip-path:url(#SVGID_00000164508900022985538080000018084934936384168378_);fill:#020100;" d="M309.3,231
			c-13.4,0-24.3,10.9-24.3,24.3v201.2c0,13.4,10.9,24.3,24.3,24.3h100.3c13.4,0,24.3-10.9,24.3-24.3V255.3
			c0-13.4-10.9-24.3-24.3-24.3H309.3z"/>
		
			<path style="clip-path:url(#SVGID_00000164508900022985538080000018084934936384168378_);fill:none;stroke:#43B64B;stroke-width:2;" d="
			M309.3,231c-13.4,0-24.3,10.9-24.3,24.3v201.2c0,13.4,10.9,24.3,24.3,24.3h100.3c13.4,0,24.3-10.9,24.3-24.3V255.3
			c0-13.4-10.9-24.3-24.3-24.3H309.3z"/>
	</g>
	
		<rect x="297.8" y="245.8" style="clip-path:url(#SVGID_00000080924616151884678650000017231925641667017125_);fill:#43B64D;" width="123.3" height="219.3"/>
	<g style="clip-path:url(#SVGID_00000080924616151884678650000017231925641667017125_);">
		<defs>
			<rect id="SVGID_00000120521552158079930870000010499974640173284005_" x="103.7" y="111.6" width="493.7" height="531.4"/>
		</defs>
		<clipPath id="SVGID_00000058575212857509870830000017948758419792053933_">
			<use xlink:href="#SVGID_00000120521552158079930870000010499974640173284005_"  style="overflow:visible;"/>
		</clipPath>
		<path style="clip-path:url(#SVGID_00000058575212857509870830000017948758419792053933_);fill:#231F20;" d="M329.9,295.1
			c7.3,0,13.2-5.9,13.2-13.2s-5.9-13.2-13.2-13.2s-13.2,5.9-13.2,13.2S322.6,295.1,329.9,295.1"/>
		
			<path style="clip-path:url(#SVGID_00000058575212857509870830000017948758419792053933_);fill:none;stroke:#FFFFFF;stroke-width:2;" d="
			M329.9,295.1c7.3,0,13.2-5.9,13.2-13.2s-5.9-13.2-13.2-13.2s-13.2,5.9-13.2,13.2S322.6,295.1,329.9,295.1z"/>
		<path style="clip-path:url(#SVGID_00000058575212857509870830000017948758419792053933_);fill:#231F20;" d="M392.9,295.7
			c7.3,0,13.2-5.9,13.2-13.2s-5.9-13.2-13.2-13.2c-7.3,0-13.2,5.9-13.2,13.2S385.6,295.7,392.9,295.7"/>
		
			<path style="clip-path:url(#SVGID_00000058575212857509870830000017948758419792053933_);fill:none;stroke:#FFFFFF;stroke-width:2;" d="
			M392.9,295.7c7.3,0,13.2-5.9,13.2-13.2s-5.9-13.2-13.2-13.2c-7.3,0-13.2,5.9-13.2,13.2S385.6,295.7,392.9,295.7z"/>
		<path style="clip-path:url(#SVGID_00000058575212857509870830000017948758419792053933_);fill:#231F20;" d="M361.8,335.6
			c7.3,0,13.2-5.9,13.2-13.2s-5.9-13.2-13.2-13.2c-7.3,0-13.2,5.9-13.2,13.2S354.6,335.6,361.8,335.6"/>
		
			<path style="clip-path:url(#SVGID_00000058575212857509870830000017948758419792053933_);fill:none;stroke:#FFFFFF;stroke-width:2;" d="
			M361.8,335.6c7.3,0,13.2-5.9,13.2-13.2s-5.9-13.2-13.2-13.2c-7.3,0-13.2,5.9-13.2,13.2S354.6,335.6,361.8,335.6z"/>
		<path style="clip-path:url(#SVGID_00000058575212857509870830000017948758419792053933_);fill:#D2232A;" d="M360.9,267.6
			c4.8,0,8.8-3.9,8.8-8.8c0-4.8-3.9-8.8-8.8-8.8c-4.8,0-8.8,3.9-8.8,8.8C352.2,263.7,356.1,267.6,360.9,267.6"/>
		
			<path style="clip-path:url(#SVGID_00000058575212857509870830000017948758419792053933_);fill:none;stroke:#FFFFFF;stroke-width:2;" d="
			M360.9,267.6c4.8,0,8.8-3.9,8.8-8.8c0-4.8-3.9-8.8-8.8-8.8c-4.8,0-8.8,3.9-8.8,8.8C352.2,263.7,356.1,267.6,360.9,267.6z"/>
		<g style="opacity:0.8;clip-path:url(#SVGID_00000058575212857509870830000017948758419792053933_);">
			<g>
				<defs>
					<rect id="SVGID_00000118392885019878245390000010140110388531503035_" x="292.9" y="338.2" width="133.1" height="120.3"/>
				</defs>
				<clipPath id="SVGID_00000177464277320209812380000016304188677022683034_">
					<use xlink:href="#SVGID_00000118392885019878245390000010140110388531503035_"  style="overflow:visible;"/>
				</clipPath>
				
					<rect x="311.1" y="352.4" style="clip-path:url(#SVGID_00000177464277320209812380000016304188677022683034_);fill:#0B1A3E;" width="96.7" height="104.1"/>
			</g>
		</g>
	</g>
	
		<rect x="346" y="415.9" style="clip-path:url(#SVGID_00000080924616151884678650000017231925641667017125_);fill:#43B64B;" width="28.7" height="28.7"/>
	<g style="clip-path:url(#SVGID_00000080924616151884678650000017231925641667017125_);">
		<defs>
			<rect id="SVGID_00000181802327919556218370000015316383227473406860_" x="103.7" y="111.6" width="493.7" height="531.4"/>
		</defs>
		<clipPath id="SVGID_00000040562157950451396700000009230295630733441164_">
			<use xlink:href="#SVGID_00000181802327919556218370000015316383227473406860_"  style="overflow:visible;"/>
		</clipPath>
		<path style="clip-path:url(#SVGID_00000040562157950451396700000009230295630733441164_);fill:#231F20;" d="M417.8,316.6
			c0,0-10.5,12.4-4.3,19.8c6.2,7.4,14.2,3.3,19.5-1.2c9.9-8.4,17.7-2.5,15.2,5.3c-3.8,11.9-12.7,39.4,4.6,29.8
			c2.5,9.3,12.7,8.4,13.9,0.9c4.3,5.6,11.4,11.7,16.1-3.1c3.5-10.9-3.7-17.4-6.2-13.6c-2.5,3.7-1.2,12.4-1.2,12.4s1.9-15.5-5.6-17.4
			c0.6-11.8,5.5-35.8-11.8-43.4C432.1,294.6,417.8,316.6,417.8,316.6"/>
		<path style="clip-path:url(#SVGID_00000040562157950451396700000009230295630733441164_);fill:none;stroke:#FFFFFF;" d="
			M417.8,316.6c0,0-10.5,12.4-4.3,19.8c6.2,7.4,14.2,3.3,19.5-1.2c9.9-8.4,17.7-2.5,15.2,5.3c-3.8,11.9-12.7,39.4,4.6,29.8
			c2.5,9.3,12.7,8.4,13.9,0.9c4.3,5.6,11.4,11.7,16.1-3.1c3.5-10.9-3.7-17.4-6.2-13.6c-2.5,3.7-1.2,12.4-1.2,12.4s1.9-15.5-5.6-17.4
			c0.6-11.8,5.5-35.8-11.8-43.4C432.1,294.6,417.8,316.6,417.8,316.6z"/>
		
			<path style="clip-path:url(#SVGID_00000040562157950451396700000009230295630733441164_);fill:none;stroke:#231F20;stroke-width:2;" d="
			M474.3,489.8c0,0-35.4-5.2-33.6,21.7c4.8,5.5,33.2,10.4,49.6-8.8c10.3-14,1.8-23.5,1.8-23.5s12.1-29.9-4.8-34.2
			c-16.9,0.6-18.4,2.1-19.4,2.7s-6.3,2.7-7.2,2.7c7.2,5.8,0.2,30.8,0.2,30.8s5.3,0.4,5.2,4c-0.1,4.3-1.6,4-1.6,4L474.3,489.8z"/>
		
			<path style="clip-path:url(#SVGID_00000040562157950451396700000009230295630733441164_);fill:none;stroke:#231F20;stroke-width:2;" d="
			M440.2,512.8l-0.3,4.9c0,0,3.5,10.5,31.2,5.6c27.7-4.9,30.4-18.7,31.3-21.4c0.9-2.8,4.2-12.9-3.6-26c5.8-3.4,6.7-8,5.8-15
			c-0.9-7-1.2-18.8-12.2-18.5c-3.6,0.4-4.1,1.9-4.1,1.9s16.6,6.8,5.3,34.1c3.6,6.7,5.3,15-1.2,24.5
			C485.7,512.4,469.3,522,440.2,512.8z"/>
		
			<path style="clip-path:url(#SVGID_00000040562157950451396700000009230295630733441164_);fill:none;stroke:#231F20;stroke-width:2;" d="
			M457.3,450.6c0,0,6.9,1.5,0.5,29.5c-7.7-0.3-8.2-1.2-8.2-1.2s-3.4-15.2,0.8-27.4C454.1,452.1,457.8,450.6,457.3,450.6z"/>
		<path style="clip-path:url(#SVGID_00000040562157950451396700000009230295630733441164_);fill:#231F20;" d="M472.4,479.4
			c0.7-0.5,0.8-1.8,0.2-2.9c-0.6-1.1-1.7-1.6-2.5-1.1c-0.7,0.5-0.8,1.8-0.2,2.9C470.5,479.4,471.6,479.9,472.4,479.4"/>
		
			<path style="clip-path:url(#SVGID_00000040562157950451396700000009230295630733441164_);fill:none;stroke:#231F20;stroke-width:2;" d="
			M472.4,479.4c0.7-0.5,0.8-1.8,0.2-2.9c-0.6-1.1-1.7-1.6-2.5-1.1c-0.7,0.5-0.8,1.8-0.2,2.9C470.5,479.4,471.6,479.9,472.4,479.4z"
			/>
		<path style="clip-path:url(#SVGID_00000040562157950451396700000009230295630733441164_);fill:#231F20;" d="M476.2,490.7
			c0.8,0,1.5-1.3,1.5-2.8c0-1.6-0.7-2.8-1.5-2.8c-0.8,0-1.5,1.3-1.5,2.8C474.8,489.4,475.4,490.7,476.2,490.7"/>
		
			<path style="clip-path:url(#SVGID_00000040562157950451396700000009230295630733441164_);fill:none;stroke:#231F20;stroke-width:2;" d="
			M476.2,490.7c0.8,0,1.5-1.3,1.5-2.8c0-1.6-0.7-2.8-1.5-2.8c-0.8,0-1.5,1.3-1.5,2.8C474.8,489.4,475.4,490.7,476.2,490.7z"/>
		<path style="clip-path:url(#SVGID_00000040562157950451396700000009230295630733441164_);fill:#231F20;" d="M447.7,474.9
			c0,0-37.8-5-44.4-24.9c-6.6-19.8,10.5-16.7,11-16.7s3.1,0,12.9,7.9c9.8,7.9,20.8,9.8,20.8,9.8S445.8,468.3,447.7,474.9"/>
		
			<path style="clip-path:url(#SVGID_00000040562157950451396700000009230295630733441164_);fill:none;stroke:#231F20;stroke-width:2;" d="
			M205.3,415.6c0,0-26.6,11.1-3.1,47.4c11.3,20.6,22,25.3,22,25.3l-3.1,2.8c0,0,25.6,37.3,40.9,27.1c15.3-10.2-15.3-33-21.7-44.4
			C234,462.5,227.6,408.5,205.3,415.6z"/>
		
			<path style="clip-path:url(#SVGID_00000040562157950451396700000009230295630733441164_);fill:none;stroke:#231F20;stroke-width:2;" d="
			M206.1,414.9c0,0,17.8-12,25.2,9.9c7.4,21.9,9.5,37,12.3,41.6c2.8,4.6,10.7,14.5,19.6,21.6c6.1,4.9,12.5,16.7,4.9,25.3
			c-5.1,5.7-4,3.6-4,3.6s9.8-5.5-2.5-20.3c-12.3-14.8-19.3-21.6-19.3-21.6s-3.4-1.8-11.3-33.3C223,410.3,206.1,414.9,206.1,414.9z"
			/>
		
			<path style="clip-path:url(#SVGID_00000040562157950451396700000009230295630733441164_);fill:none;stroke:#231F20;stroke-width:2;" d="
			M226.8,413.4c2.2-2.1,20,2.5,22.1,16.7c2.1,14.2,2.7,26.3,8.6,28.1c-4.4-4.8-4.1-9.4-4.1-9.4l6.8-4.2l23.7,23c0,0-2.7,1.4-2.7,5.4
			c0,4.1-2.6,19.2-9.1,26.1c-3-11.7-18.8-22.4-24-30.7C241.7,465.8,235.1,419.8,226.8,413.4z"/>
		<path style="clip-path:url(#SVGID_00000040562157950451396700000009230295630733441164_);fill:#231F20;" d="M264.6,462.4
			c1.3,0,2.4-1.3,2.4-2.8c0-1.6-1.1-2.8-2.4-2.8c-1.3,0-2.4,1.3-2.4,2.8C262.2,461.1,263.3,462.4,264.6,462.4"/>
		
			<path style="clip-path:url(#SVGID_00000040562157950451396700000009230295630733441164_);fill:none;stroke:#231F20;stroke-width:2;" d="
			M264.6,462.4c1.3,0,2.4-1.3,2.4-2.8c0-1.6-1.1-2.8-2.4-2.8c-1.3,0-2.4,1.3-2.4,2.8C262.2,461.1,263.3,462.4,264.6,462.4z"/>
		<path style="clip-path:url(#SVGID_00000040562157950451396700000009230295630733441164_);fill:#FFFFFF;" d="M263.4,445.1l4.2-5.6
			c0,0,16.9,8.4,20.3,20.4c-2.8,3.6-3.4,4.5-3.4,4.5L263.4,445.1z"/>
		
			<path style="clip-path:url(#SVGID_00000040562157950451396700000009230295630733441164_);fill:none;stroke:#231F20;stroke-width:2;" d="
			M263.4,445.1l4.2-5.6c0,0,16.9,8.4,20.3,20.4c-2.8,3.6-3.4,4.5-3.4,4.5L263.4,445.1z"/>
		<path style="clip-path:url(#SVGID_00000040562157950451396700000009230295630733441164_);fill:#231F20;" d="M270.6,439.2
			c0,0,7.6-20.9,17-26.9s13.2-5.7,20.2-2.5c6.9,3.1,26.4,24.2,21.3,33.7s-21.6,13.2-31-10.4c-1.3,7.6-5.4,12.9-5.4,12.9l-6,6.9
			C286.7,452.9,276.6,441.6,270.6,439.2"/>
	</g>
	
		<line style="clip-path:url(#SVGID_00000080924616151884678650000017231925641667017125_);fill:none;stroke:#FFFFFF;stroke-width:2;" x1="344.7" y1="283.3" x2="329.9" y2="283.3"/>
	
		<line style="clip-path:url(#SVGID_00000080924616151884678650000017231925641667017125_);fill:none;stroke:#FFFFFF;stroke-width:2;" x1="378.1" y1="283.7" x2="392.9" y2="283.7"/>
	
		<line style="clip-path:url(#SVGID_00000080924616151884678650000017231925641667017125_);fill:none;stroke:#FFFFFF;stroke-width:2;" x1="361.7" y1="307.8" x2="361.7" y2="322.6"/>
	<g style="clip-path:url(#SVGID_00000080924616151884678650000017231925641667017125_);">
		<defs>
			<rect id="SVGID_00000061473655971519229390000001684886960619826859_" x="103.7" y="111.6" width="493.7" height="531.4"/>
		</defs>
		<clipPath id="SVGID_00000156550228200187500510000015657439932429016974_">
			<use xlink:href="#SVGID_00000061473655971519229390000001684886960619826859_"  style="overflow:visible;"/>
		</clipPath>
		
			<path style="clip-path:url(#SVGID_00000156550228200187500510000015657439932429016974_);fill:none;stroke:#231F20;stroke-width:2;" d="
			M191.4,437.4c0,0,26.1-12.6,31-12.6"/>
		
			<path style="clip-path:url(#SVGID_00000156550228200187500510000015657439932429016974_);fill:none;stroke:#231F20;stroke-width:2;" d="
			M193.6,445.7c0,0,30.3-13.5,33.4-13.5"/>
	</g>
	
		<line style="clip-path:url(#SVGID_00000080924616151884678650000017231925641667017125_);fill:none;stroke:#231F20;stroke-width:2;" x1="198.3" y1="454.6" x2="228.5" y2="439.9"/>
	
		<line style="clip-path:url(#SVGID_00000080924616151884678650000017231925641667017125_);fill:none;stroke:#231F20;stroke-width:2;" x1="203.2" y1="462.7" x2="231.5" y2="447.1"/>
	
		<line style="clip-path:url(#SVGID_00000080924616151884678650000017231925641667017125_);fill:none;stroke:#231F20;stroke-width:2;" x1="208" y1="470.2" x2="232.9" y2="454.6"/>
	
		<line style="clip-path:url(#SVGID_00000080924616151884678650000017231925641667017125_);fill:none;stroke:#231F20;stroke-width:2;" x1="212.7" y1="477.7" x2="235" y2="462.7"/>
	
		<line style="clip-path:url(#SVGID_00000080924616151884678650000017231925641667017125_);fill:none;stroke:#231F20;stroke-width:2;" x1="218.4" y1="482.6" x2="238.2" y2="470.2"/>
	
		<line style="clip-path:url(#SVGID_00000080924616151884678650000017231925641667017125_);fill:none;stroke:#231F20;stroke-width:2;" x1="224.9" y1="487.3" x2="241.1" y2="477.1"/>
	
		<line style="clip-path:url(#SVGID_00000080924616151884678650000017231925641667017125_);fill:none;stroke:#231F20;stroke-width:2;" x1="227.5" y1="497.8" x2="245.5" y2="482.5"/>
	<g style="clip-path:url(#SVGID_00000080924616151884678650000017231925641667017125_);">
		<defs>
			<rect id="SVGID_00000027577378099152516440000007983987907196209301_" x="103.7" y="111.6" width="493.7" height="531.4"/>
		</defs>
		<clipPath id="SVGID_00000126286109324813353500000009700967310312691388_">
			<use xlink:href="#SVGID_00000027577378099152516440000007983987907196209301_"  style="overflow:visible;"/>
		</clipPath>
		
			<path style="clip-path:url(#SVGID_00000126286109324813353500000009700967310312691388_);fill:none;stroke:#231F20;stroke-width:2;" d="
			M234,504.2c0,0,15.1-13.4,19.8-13.6"/>
		
			<path style="clip-path:url(#SVGID_00000126286109324813353500000009700967310312691388_);fill:none;stroke:#231F20;stroke-width:2;" d="
			M239.4,510.5c0,0,14.3-13.3,18.2-13.9"/>
		
			<path style="clip-path:url(#SVGID_00000126286109324813353500000009700967310312691388_);fill:none;stroke:#231F20;stroke-width:2;" d="
			M246.2,515.4c0,0,12.5-13,15.2-14.2"/>
	</g>
	
		<line style="clip-path:url(#SVGID_00000080924616151884678650000017231925641667017125_);fill:none;stroke:#231F20;stroke-width:2;" x1="253.5" y1="518.8" x2="265.7" y2="508.7"/>
	
		<line style="clip-path:url(#SVGID_00000080924616151884678650000017231925641667017125_);fill:none;stroke:#231F20;stroke-width:3;" x1="255.1" y1="449.6" x2="260" y2="454.9"/>
	
		<line style="clip-path:url(#SVGID_00000080924616151884678650000017231925641667017125_);fill:none;stroke:#231F20;stroke-width:3;" x1="463.9" y1="481.1" x2="472.5" y2="480.2"/>
	<g style="clip-path:url(#SVGID_00000080924616151884678650000017231925641667017125_);">
		<defs>
			<rect id="SVGID_00000170274691052096014100000017434550604249209484_" x="103.7" y="111.6" width="493.7" height="531.4"/>
		</defs>
		<clipPath id="SVGID_00000029036638225129994720000000008299703321243820_">
			<use xlink:href="#SVGID_00000170274691052096014100000017434550604249209484_"  style="overflow:visible;"/>
		</clipPath>
		
			<path style="clip-path:url(#SVGID_00000029036638225129994720000000008299703321243820_);fill:none;stroke:#231F20;stroke-width:3;" d="
			M191.1,408.4c0,0,6.6-12.1,2.4-26.7c5.4,7.9,12.6,15.1,19.8-7.3c2.4,25.4,5.7,24.2,18.6,4.8c-4.8,21.2-0.6,29.1,10.8,18.8"/>
		
			<path style="clip-path:url(#SVGID_00000029036638225129994720000000008299703321243820_);fill:none;stroke:#231F20;stroke-width:2;" d="
			M487.1,429.3c0,0,10.9-12.8,13.1-28.7"/>
		
			<path style="clip-path:url(#SVGID_00000029036638225129994720000000008299703321243820_);fill:none;stroke:#231F20;stroke-width:2;" d="
			M500.9,426.7c0,0,4.2-3.6,5.6-15.5"/>
	</g>
	<g style="clip-path:url(#SVGID_00000080924616151884678650000017231925641667017125_);">
		<text transform="matrix(0.6999 -0.7143 0.7143 0.6999 192.4499 222.6931)" class="st23 st24 st25">P</text>
	</g>
	<g style="clip-path:url(#SVGID_00000080924616151884678650000017231925641667017125_);">
		<text transform="matrix(0.8109 -0.5852 0.5852 0.8109 221.0157 193.4631)" class="st23 st24 st26">E</text>
	</g>
	<g style="clip-path:url(#SVGID_00000080924616151884678650000017231925641667017125_);">
		<defs>
			<rect id="SVGID_00000062895362769963189110000015873948301077507982_" x="103.7" y="111.6" width="493.7" height="531.4"/>
		</defs>
		<clipPath id="SVGID_00000111174967816525522270000004608225771297568431_">
			<use xlink:href="#SVGID_00000062895362769963189110000015873948301077507982_"  style="overflow:visible;"/>
		</clipPath>
		<g style="clip-path:url(#SVGID_00000111174967816525522270000004608225771297568431_);">
			<text transform="matrix(0.9126 -0.4088 0.4088 0.9126 254.2979 169.6868)" class="st23 st24 st25">D</text>
		</g>
		<g style="clip-path:url(#SVGID_00000111174967816525522270000004608225771297568431_);">
			<text transform="matrix(0.9786 -0.2056 0.2056 0.9786 291.8439 152.8664)" class="st23 st24 st28">A</text>
		</g>
		<g style="clip-path:url(#SVGID_00000111174967816525522270000004608225771297568431_);">
			<text transform="matrix(0.9999 1.387196e-02 -1.387196e-02 0.9999 333.001 144.0906)" class="st23 st24 st25">L</text>
		</g>
		<g style="clip-path:url(#SVGID_00000111174967816525522270000004608225771297568431_);">
			<text transform="matrix(0.9786 0.2056 -0.2056 0.9786 372.9054 144.3768)" class="st23 st24 st28">B</text>
		</g>
		<g style="clip-path:url(#SVGID_00000111174967816525522270000004608225771297568431_);">
			<text transform="matrix(0.9126 0.4088 -0.4088 0.9126 413.9131 153.1351)" class="st23 st24 st25">O</text>
		</g>
	</g>
	<g style="clip-path:url(#SVGID_00000080924616151884678650000017231925641667017125_);">
		<text transform="matrix(0.8109 0.5852 -0.5852 0.8109 452.4651 170.6035)" class="st23 st24 st26">A</text>
	</g>
	<g style="clip-path:url(#SVGID_00000080924616151884678650000017231925641667017125_);">
		<text transform="matrix(0.6826 0.7308 -0.7308 0.6826 486.4627 195.2884)" class="st23 st24 st26">R</text>
	</g>
	<g style="clip-path:url(#SVGID_00000080924616151884678650000017231925641667017125_);">
		<text transform="matrix(0.5539 0.8326 -0.8326 0.5539 515.0797 226.6343)" class="st23 st24 st25">D</text>
	</g>
	<g style="clip-path:url(#SVGID_00000080924616151884678650000017231925641667017125_);">
		<defs>
			<rect id="SVGID_00000096055649073310887590000014251773227701078712_" x="103.7" y="111.6" width="493.7" height="531.4"/>
		</defs>
		<clipPath id="SVGID_00000086659746740482469620000014077999073090836638_">
			<use xlink:href="#SVGID_00000096055649073310887590000014251773227701078712_"  style="overflow:visible;"/>
		</clipPath>
		<g style="clip-path:url(#SVGID_00000086659746740482469620000014077999073090836638_);">
			<text transform="matrix(0.8902 0.4557 -0.4557 0.8902 238.5954 578.0849)" class="st23 st24 st30">B</text>
		</g>
		<g style="clip-path:url(#SVGID_00000086659746740482469620000014077999073090836638_);">
			<text transform="matrix(0.9727 0.2322 -0.2322 0.9727 280.4857 599.4501)" class="st23 st24 st31">U</text>
		</g>
		<g style="clip-path:url(#SVGID_00000086659746740482469620000014077999073090836638_);">
			<text transform="matrix(0.9999 -1.387143e-02 1.387143e-02 0.9999 327.8243 610.4855)" class="st23 st24 st30">D</text>
		</g>
		<g style="clip-path:url(#SVGID_00000086659746740482469620000014077999073090836638_);">
			<text transform="matrix(0.966 -0.2584 0.2584 0.966 375.9338 609.7065)" class="st23 st24 st31">D</text>
		</g>
		<g style="clip-path:url(#SVGID_00000086659746740482469620000014077999073090836638_);">
			<text transform="matrix(0.8902 -0.4557 0.4557 0.8902 419.8177 597.7996)" class="st23 st24 st30">Y</text>
		</g>
	</g>
</g>
</svg>
