<?xml version="1.0" encoding="utf-8"?>
<!-- Generator: Adobe Illustrator 26.0.3, SVG Export Plug-In . SVG Version: 6.00 Build 0)  -->
<svg version="1.1" id="Layer_1" xmlns="http://www.w3.org/2000/svg" xmlns:xlink="http://www.w3.org/1999/xlink" x="0px" y="0px"
	 viewBox="0 0 720 720" style="enable-background:new 0 0 720 720;" xml:space="preserve">
<style type="text/css">
	.st0{clip-path:url(#SVGID_00000178910015393712703250000015321483714238797210_);fill:#231F20;}
	.st1{clip-path:url(#SVGID_00000178910015393712703250000015321483714238797210_);fill:none;stroke:#FFFFFF;}
	.st2{clip-path:url(#SVGID_00000178910015393712703250000015321483714238797210_);}
	.st3{clip-path:url(#SVGID_00000178910015393712703250000015321483714238797210_);fill:none;stroke:#C12B89;stroke-width:2;}
	.st4{fill:#C12B89;}
	.st5{fill:none;stroke:#231F20;}
	.st6{clip-path:url(#SVGID_00000031908795710574781820000009872802885571357090_);fill:#231F20;}
	.st7{clip-path:url(#SVGID_00000031908795710574781820000009872802885571357090_);fill:none;stroke:#FFFFFF;stroke-width:2;}
	.st8{fill:none;stroke:#FFFFFF;stroke-width:2;}
	.st9{clip-path:url(#SVGID_00000071519959158709443980000005714953583152120756_);fill:#231F20;}
	.st10{clip-path:url(#SVGID_00000071519959158709443980000005714953583152120756_);fill:none;stroke:#231F20;}
	.st11{clip-path:url(#SVGID_00000071519959158709443980000005714953583152120756_);fill:#FFFFFF;}
	.st12{fill:none;stroke:#231F20;stroke-width:2;}
	.st13{clip-path:url(#SVGID_00000072263638749878724660000001321076761307123074_);fill:#231F20;}
	.st14{clip-path:url(#SVGID_00000072263638749878724660000001321076761307123074_);fill:none;stroke:#FFFFFF;}
	.st15{clip-path:url(#SVGID_00000072263638749878724660000001321076761307123074_);fill:none;stroke:#231F20;stroke-width:2;}
	.st16{clip-path:url(#SVGID_00000072263638749878724660000001321076761307123074_);fill:#FFFFFF;}
	.st17{clip-path:url(#SVGID_00000072263638749878724660000001321076761307123074_);fill:none;stroke:#FFFFFF;stroke-width:2;}
	.st18{clip-path:url(#SVGID_00000056391355054642628150000010582782110606526886_);fill:#231F20;}
	.st19{clip-path:url(#SVGID_00000056391355054642628150000010582782110606526886_);fill:none;stroke:#FFFFFF;stroke-width:2;}
	.st20{clip-path:url(#SVGID_00000173859686802948410540000001875670191717424015_);fill:none;stroke:#231F20;stroke-width:2;}
	.st21{clip-path:url(#SVGID_00000126318150089386489470000006455038111841793408_);fill:none;stroke:#231F20;stroke-width:2;}
	.st22{fill:none;stroke:#231F20;stroke-width:3;}
	.st23{clip-path:url(#SVGID_00000070099209975763364220000001158811700693780925_);fill:none;stroke:#231F20;stroke-width:3;}
	.st24{clip-path:url(#SVGID_00000070099209975763364220000001158811700693780925_);fill:none;stroke:#231F20;stroke-width:2;}
	.st25{fill:#231F20;}
	.st26{font-family:'Blenny-Black';}
	.st27{font-size:50.1441px;}
	.st28{font-size:50.144px;}
	.st29{clip-path:url(#SVGID_00000044169053813217945690000003700911193357787825_);}
	.st30{font-size:50.1442px;}
	.st31{clip-path:url(#SVGID_00000012450430225743185820000016393886387763519913_);}
	.st32{font-size:56.1614px;}
	.st33{font-size:56.1613px;}
</style>
<g>
	<defs>
		<rect id="SVGID_1_" x="113.4" y="113.9" width="488.7" height="526.1"/>
	</defs>
	<clipPath id="SVGID_00000132088003353801141100000001499544322159520423_">
		<use xlink:href="#SVGID_1_"  style="overflow:visible;"/>
	</clipPath>
	<path style="clip-path:url(#SVGID_00000132088003353801141100000001499544322159520423_);fill:#231F20;" d="M289,333.6l-0.6,24.5
		c0,0-17-2.7-26.2-11.9c-11.9-11.9-12.2-28.4-12.2-28.4l4.7-1.1c0,0-14.1,3.5-13.4-11.6c-7.8-6-10.2-15.7-7.2-18.5
		c4.2-4,6.9-1.9,6.9-1.9s-0.6-11.9,11.2-8.2c8.7-9.7,22.5-5.7,22.5,13.8c7.5,6.9,4.4,17,0,24.5C275.3,322.9,275.9,329.5,289,333.6"
		/>
	<path style="clip-path:url(#SVGID_00000132088003353801141100000001499544322159520423_);fill:none;stroke:#FFFFFF;" d="M289,333.6
		l-0.6,24.5c0,0-17-2.7-26.2-11.9c-11.9-11.9-12.2-28.4-12.2-28.4l4.7-1.1c0,0-14.1,3.5-13.4-11.6c-7.8-6-10.2-15.7-7.2-18.5
		c4.2-4,6.9-1.9,6.9-1.9s-0.6-11.9,11.2-8.2c8.7-9.7,22.5-5.7,22.5,13.8c7.5,6.9,4.4,17,0,24.5C275.3,322.9,275.9,329.5,289,333.6z"
		/>
	<path style="clip-path:url(#SVGID_00000132088003353801141100000001499544322159520423_);fill:#231F20;" d="M257.9,311
		c0,0-10.2-9.7,6.5-14.3c-13.9,5.2-16.6-4.3-9.2-7.7c8.7-4,19.4,0.9,19.4,0.9"/>
	<path style="clip-path:url(#SVGID_00000132088003353801141100000001499544322159520423_);fill:none;stroke:#FFFFFF;" d="M257.9,311
		c0,0-10.2-9.7,6.5-14.3c-13.9,5.2-16.6-4.3-9.2-7.7c8.7-4,19.4,0.9,19.4,0.9"/>
	<path style="clip-path:url(#SVGID_00000132088003353801141100000001499544322159520423_);fill:#231F20;" d="M262.9,278.8
		c0,0,0.6,4.8,0.5,6.8"/>
	<path style="clip-path:url(#SVGID_00000132088003353801141100000001499544322159520423_);fill:none;stroke:#FFFFFF;" d="
		M262.9,278.8c0,0,0.6,4.8,0.5,6.8"/>
	<path style="clip-path:url(#SVGID_00000132088003353801141100000001499544322159520423_);fill:#231F20;" d="M252.4,275.8
		c0,0-0.1,9.7,1.3,11.5"/>
	<path style="clip-path:url(#SVGID_00000132088003353801141100000001499544322159520423_);fill:none;stroke:#FFFFFF;" d="
		M252.4,275.8c0,0-0.1,9.7,1.3,11.5"/>
	<path style="clip-path:url(#SVGID_00000132088003353801141100000001499544322159520423_);fill:#231F20;" d="M240.9,283.5
		c0,0,2.7,19.6,12.6,14.7"/>
	<path style="clip-path:url(#SVGID_00000132088003353801141100000001499544322159520423_);fill:none;stroke:#FFFFFF;" d="
		M240.9,283.5c0,0,2.7,19.6,12.6,14.7"/>
	<path style="clip-path:url(#SVGID_00000132088003353801141100000001499544322159520423_);fill:#231F20;" d="M240.4,303.9
		c0,0,5.8-0.6,7.1-4"/>
	<path style="clip-path:url(#SVGID_00000132088003353801141100000001499544322159520423_);fill:none;stroke:#FFFFFF;" d="
		M240.4,303.9c0,0,5.8-0.6,7.1-4"/>
	<path style="clip-path:url(#SVGID_00000132088003353801141100000001499544322159520423_);" d="M314.8,228.3
		c-13.3,0-24.1,10.8-24.1,24.1v186.1c0,13.3,10.8,24.1,24.1,24.1h91.7c13.3,0,24.1-10.8,24.1-24.1V252.3c0-13.3-10.8-24.1-24.1-24.1
		H314.8z"/>
	
		<path style="clip-path:url(#SVGID_00000132088003353801141100000001499544322159520423_);fill:none;stroke:#C12B89;stroke-width:2;" d="
		M314.8,228.3c-13.3,0-24.1,10.8-24.1,24.1v186.1c0,13.3,10.8,24.1,24.1,24.1h91.7c13.3,0,24.1-10.8,24.1-24.1V252.3
		c0-13.3-10.8-24.1-24.1-24.1H314.8z"/>
</g>
<rect x="302" y="239.2" class="st4" width="116.1" height="207.5"/>
<rect x="302" y="239.2" class="st5" width="116.1" height="207.5"/>
<g>
	<defs>
		<rect id="SVGID_00000051380961370902624670000002348367545453310367_" x="113.4" y="113.9" width="488.7" height="526.1"/>
	</defs>
	<clipPath id="SVGID_00000150092473613570601060000008922966847657055912_">
		<use xlink:href="#SVGID_00000051380961370902624670000002348367545453310367_"  style="overflow:visible;"/>
	</clipPath>
	<path style="clip-path:url(#SVGID_00000150092473613570601060000008922966847657055912_);fill:#231F20;" d="M328.4,313
		c8,0,14.5-6.5,14.5-14.5c0-8-6.5-14.5-14.5-14.5c-8,0-14.5,6.5-14.5,14.5C313.9,306.5,320.4,313,328.4,313"/>
	
		<path style="clip-path:url(#SVGID_00000150092473613570601060000008922966847657055912_);fill:none;stroke:#FFFFFF;stroke-width:2;" d="
		M328.4,313c8,0,14.5-6.5,14.5-14.5c0-8-6.5-14.5-14.5-14.5c-8,0-14.5,6.5-14.5,14.5C313.9,306.5,320.4,313,328.4,313z"/>
</g>
<line class="st8" x1="344.4" y1="299.5" x2="328.4" y2="299.5"/>
<g>
	<defs>
		<rect id="SVGID_00000029737990512243360720000007946635664059732136_" x="113.4" y="113.9" width="488.7" height="526.1"/>
	</defs>
	<clipPath id="SVGID_00000021824590539198831670000009316780243934148243_">
		<use xlink:href="#SVGID_00000029737990512243360720000007946635664059732136_"  style="overflow:visible;"/>
	</clipPath>
	<path style="clip-path:url(#SVGID_00000021824590539198831670000009316780243934148243_);fill:#231F20;" d="M362,379.2
		c4.4,0,8-3.6,8-8.1c0-4.5-3.6-8.1-8-8.1c-4.4,0-8,3.6-8,8.1C354,375.6,357.6,379.2,362,379.2"/>
	
		<ellipse style="clip-path:url(#SVGID_00000021824590539198831670000009316780243934148243_);fill:none;stroke:#231F20;" cx="362" cy="371.1" rx="8" ry="8.1"/>
	<path style="clip-path:url(#SVGID_00000021824590539198831670000009316780243934148243_);fill:#FFFFFF;" d="M363,417.3
		c8.1,0,14.6-6.6,14.6-14.6c0-8.1-6.6-14.6-14.6-14.6c-8.1,0-14.6,6.6-14.6,14.6C348.4,410.8,354.9,417.3,363,417.3"/>
	<path style="clip-path:url(#SVGID_00000021824590539198831670000009316780243934148243_);fill:none;stroke:#231F20;" d="M363,417.3
		c8.1,0,14.6-6.6,14.6-14.6c0-8.1-6.6-14.6-14.6-14.6c-8.1,0-14.6,6.6-14.6,14.6C348.4,410.8,354.9,417.3,363,417.3z"/>
</g>
<line class="st12" x1="194.9" y1="407.2" x2="215.9" y2="398.8"/>
<g>
	<defs>
		<rect id="SVGID_00000057144101205121673910000011045878579262722971_" x="113.4" y="113.9" width="488.7" height="526.1"/>
	</defs>
	<clipPath id="SVGID_00000031167436439214656340000005277601487203126155_">
		<use xlink:href="#SVGID_00000057144101205121673910000011045878579262722971_"  style="overflow:visible;"/>
	</clipPath>
	<path style="clip-path:url(#SVGID_00000031167436439214656340000005277601487203126155_);fill:#231F20;" d="M421.8,296.8
		c0,0-10.7,12.6-4.4,20.1c6.3,7.5,14.3,3.3,19.8-1.3c10-8.5,17.9-2.5,15.4,5.3c-3.8,12-12.9,39.9,4.7,30.1
		c2.5,9.4,12.9,8.5,14.1,0.9c4.4,5.7,11.5,11.8,16.3-3.1c3.5-11-3.8-17.6-6.3-13.8c-2.5,3.8-1.3,12.6-1.3,12.6s1.9-15.7-5.6-17.6
		c0.6-11.9,5.6-36.2-11.9-44C436.4,274.6,421.8,296.8,421.8,296.8"/>
	<path style="clip-path:url(#SVGID_00000031167436439214656340000005277601487203126155_);fill:none;stroke:#FFFFFF;" d="
		M421.8,296.8c0,0-10.7,12.6-4.4,20.1c6.3,7.5,14.3,3.3,19.8-1.3c10-8.5,17.9-2.5,15.4,5.3c-3.8,12-12.9,39.9,4.7,30.1
		c2.5,9.4,12.9,8.5,14.1,0.9c4.4,5.7,11.5,11.8,16.3-3.1c3.5-11-3.8-17.6-6.3-13.8c-2.5,3.8-1.3,12.6-1.3,12.6s1.9-15.7-5.6-17.6
		c0.6-11.9,5.6-36.2-11.9-44C436.4,274.6,421.8,296.8,421.8,296.8z"/>
	
		<path style="clip-path:url(#SVGID_00000031167436439214656340000005277601487203126155_);fill:none;stroke:#231F20;stroke-width:2;" d="
		M479,472.1c0,0-35.9-5.3-34,21.9c4.9,5.6,33.6,10.5,50.3-9c10.4-14.2,1.8-23.8,1.8-23.8s12.3-30.3-4.9-34.6
		c-17.2,0.6-18.7,2.2-19.7,2.8c-1,0.6-6.4,2.8-7.3,2.8c7.3,5.9,0.2,31.2,0.2,31.2s5.3,0.4,5.3,4c-0.1,4.3-1.6,4-1.6,4L479,472.1z"/>
	
		<path style="clip-path:url(#SVGID_00000031167436439214656340000005277601487203126155_);fill:none;stroke:#231F20;stroke-width:2;" d="
		M444.5,495.4l-0.3,5c0,0,3.5,10.6,31.6,5.6c28-5,30.8-18.9,31.7-21.7c0.9-2.8,4.2-13-3.7-26.4c5.9-3.4,6.8-8.1,5.9-15.2
		s-1.2-19.1-12.3-18.7c-3.7,0.4-4.2,1.9-4.2,1.9s16.8,6.9,5.4,34.5c3.7,6.8,5.4,15.1-1.2,24.8C490.6,495,474,504.7,444.5,495.4z"/>
	
		<path style="clip-path:url(#SVGID_00000031167436439214656340000005277601487203126155_);fill:none;stroke:#231F20;stroke-width:2;" d="
		M461.8,432.4c0,0,7,1.5,0.5,29.9c-7.8-0.3-8.4-1.2-8.4-1.2s-3.5-15.4,0.8-27.8C458.6,433.9,462.4,432.4,461.8,432.4z"/>
	<path style="clip-path:url(#SVGID_00000031167436439214656340000005277601487203126155_);fill:#231F20;" d="M477.2,461.6
		c0.8-0.5,0.9-1.9,0.2-3c-0.7-1.1-1.8-1.6-2.6-1.1c-0.8,0.5-0.9,1.9-0.2,3C475.2,461.7,476.4,462.1,477.2,461.6"/>
	
		<path style="clip-path:url(#SVGID_00000031167436439214656340000005277601487203126155_);fill:none;stroke:#231F20;stroke-width:2;" d="
		M477.2,461.6c0.8-0.5,0.9-1.9,0.2-3c-0.7-1.1-1.8-1.6-2.6-1.1c-0.8,0.5-0.9,1.9-0.2,3C475.2,461.7,476.4,462.1,477.2,461.6z"/>
	<path style="clip-path:url(#SVGID_00000031167436439214656340000005277601487203126155_);fill:#231F20;" d="M481,473
		c0.9,0,1.5-1.3,1.5-2.9c0-1.6-0.7-2.9-1.5-2.9c-0.9,0-1.5,1.3-1.5,2.9C479.5,471.7,480.2,473,481,473"/>
	
		<path style="clip-path:url(#SVGID_00000031167436439214656340000005277601487203126155_);fill:none;stroke:#231F20;stroke-width:2;" d="
		M481,473c0.9,0,1.5-1.3,1.5-2.9c0-1.6-0.7-2.9-1.5-2.9c-0.9,0-1.5,1.3-1.5,2.9C479.5,471.7,480.2,473,481,473z"/>
	<path style="clip-path:url(#SVGID_00000031167436439214656340000005277601487203126155_);fill:#231F20;" d="M452.1,457.1
		c0,0-38.2-5.1-44.9-25.2c-6.7-20.1,10.7-16.9,11.2-16.9c0.5,0,3.2,0,13.1,8c9.9,8,21,9.9,21,9.9S450.2,450.4,452.1,457.1"/>
	
		<path style="clip-path:url(#SVGID_00000031167436439214656340000005277601487203126155_);fill:none;stroke:#231F20;stroke-width:2;" d="
		M206.8,397c0,0-26.9,11.2-3.1,48.1c11.4,20.9,22.3,25.6,22.3,25.6l-3.1,2.8c0,0,26,37.8,41.5,27.5c15.5-10.3-15.5-33.4-22-44.9
		C235.9,444.4,229.4,389.8,206.8,397z"/>
	
		<path style="clip-path:url(#SVGID_00000031167436439214656340000005277601487203126155_);fill:none;stroke:#231F20;stroke-width:2;" d="
		M207.6,396.3c0,0,18-12.2,25.5,10c7.5,22.2,9.6,37.5,12.4,42.1s10.9,14.7,19.9,21.8c6.2,5,12.6,16.9,5,25.6c-5.1,5.8-4,3.7-4,3.7
		s9.9-5.6-2.5-20.5c-12.4-15-19.6-21.8-19.6-21.8s-3.4-1.9-11.5-33.7C224.7,391.6,207.6,396.3,207.6,396.3z"/>
	
		<path style="clip-path:url(#SVGID_00000031167436439214656340000005277601487203126155_);fill:none;stroke:#231F20;stroke-width:2;" d="
		M228.6,394.7c2.2-2.1,20.3,2.5,22.4,16.9c2.1,14.4,2.7,26.7,8.7,28.5c-4.5-4.9-4.2-9.5-4.2-9.5l6.9-4.3l24,23.3
		c0,0-2.7,1.4-2.7,5.5c0,4.1-2.7,19.4-9.3,26.5c-3-11.9-19.1-22.7-24.3-31.1C243.7,447.8,237,401.2,228.6,394.7z"/>
	<path style="clip-path:url(#SVGID_00000031167436439214656340000005277601487203126155_);fill:#231F20;" d="M266.9,444.4
		c1.4,0,2.5-1.3,2.5-2.9c0-1.6-1.1-2.9-2.5-2.9c-1.4,0-2.5,1.3-2.5,2.9C264.4,443.1,265.5,444.4,266.9,444.4"/>
	
		<path style="clip-path:url(#SVGID_00000031167436439214656340000005277601487203126155_);fill:none;stroke:#231F20;stroke-width:2;" d="
		M266.9,444.4c1.4,0,2.5-1.3,2.5-2.9c0-1.6-1.1-2.9-2.5-2.9c-1.4,0-2.5,1.3-2.5,2.9C264.4,443.1,265.5,444.4,266.9,444.4z"/>
	<path style="clip-path:url(#SVGID_00000031167436439214656340000005277601487203126155_);fill:#FFFFFF;" d="M265.6,426.9l4.3-5.7
		c0,0,17.2,8.5,20.7,20.7c-2.9,3.7-3.4,4.5-3.4,4.5L265.6,426.9z"/>
	
		<path style="clip-path:url(#SVGID_00000031167436439214656340000005277601487203126155_);fill:none;stroke:#231F20;stroke-width:2;" d="
		M265.6,426.9l4.3-5.7c0,0,17.2,8.5,20.7,20.7c-2.9,3.7-3.4,4.5-3.4,4.5L265.6,426.9z"/>
	<path style="clip-path:url(#SVGID_00000031167436439214656340000005277601487203126155_);fill:#231F20;" d="M273,420.9
		c0,0,7.6-21.2,17.2-27.2c9.6-6.1,13.4-5.7,20.4-2.5c7,3.2,26.8,24.5,21.5,34.1c-5.3,9.6-21.8,13.4-31.4-10.5
		c-1.3,7.6-5.4,13.1-5.4,13.1l-6.1,7C289.2,434.8,279,423.3,273,420.9"/>
	<path style="clip-path:url(#SVGID_00000031167436439214656340000005277601487203126155_);fill:#231F20;" d="M395.2,313
		c8,0,14.5-6.5,14.5-14.5c0-8-6.5-14.5-14.5-14.5c-8,0-14.5,6.5-14.5,14.5C380.7,306.5,387.1,313,395.2,313"/>
	
		<path style="clip-path:url(#SVGID_00000031167436439214656340000005277601487203126155_);fill:none;stroke:#FFFFFF;stroke-width:2;" d="
		M395.2,313c8,0,14.5-6.5,14.5-14.5c0-8-6.5-14.5-14.5-14.5c-8,0-14.5,6.5-14.5,14.5C380.7,306.5,387.1,313,395.2,313z"/>
</g>
<line class="st8" x1="379.1" y1="299.3" x2="395.2" y2="299.3"/>
<g>
	<defs>
		<rect id="SVGID_00000035501003806484568140000008521697697050453636_" x="113.4" y="113.9" width="488.7" height="526.1"/>
	</defs>
	<clipPath id="SVGID_00000118364516694018320430000010464800631697272502_">
		<use xlink:href="#SVGID_00000035501003806484568140000008521697697050453636_"  style="overflow:visible;"/>
	</clipPath>
	<path style="clip-path:url(#SVGID_00000118364516694018320430000010464800631697272502_);fill:#231F20;" d="M361.4,248.8
		c-8,0-14.5,6.5-14.5,14.5c0,8,6.5,14.5,14.5,14.5c8,0,14.5-6.5,14.5-14.5C375.9,255.2,369.4,248.8,361.4,248.8"/>
	
		<path style="clip-path:url(#SVGID_00000118364516694018320430000010464800631697272502_);fill:none;stroke:#FFFFFF;stroke-width:2;" d="
		M361.4,248.8c-8,0-14.5,6.5-14.5,14.5c0,8,6.5,14.5,14.5,14.5c8,0,14.5-6.5,14.5-14.5C375.9,255.2,369.4,248.8,361.4,248.8z"/>
</g>
<line class="st8" x1="361.5" y1="279.1" x2="361.5" y2="263.1"/>
<g>
	<defs>
		<rect id="SVGID_00000165196608729122397770000006031649226467314357_" x="113.4" y="113.9" width="488.7" height="526.1"/>
	</defs>
	<clipPath id="SVGID_00000045596953823922889190000007164821102285617038_">
		<use xlink:href="#SVGID_00000165196608729122397770000006031649226467314357_"  style="overflow:visible;"/>
	</clipPath>
	
		<path style="clip-path:url(#SVGID_00000045596953823922889190000007164821102285617038_);fill:none;stroke:#231F20;stroke-width:2;" d="
		M192.7,419.1c0,0,26.4-12.8,31.4-12.8"/>
	
		<path style="clip-path:url(#SVGID_00000045596953823922889190000007164821102285617038_);fill:none;stroke:#231F20;stroke-width:2;" d="
		M195,427.5c0,0,30.6-13.7,33.8-13.7"/>
</g>
<line class="st12" x1="199.7" y1="436.6" x2="230.3" y2="421.5"/>
<line class="st12" x1="204.7" y1="444.7" x2="233.3" y2="428.8"/>
<line class="st12" x1="209.5" y1="452.3" x2="234.8" y2="436.5"/>
<line class="st12" x1="214.3" y1="459.9" x2="236.9" y2="444.6"/>
<line class="st12" x1="220.1" y1="464.8" x2="240.2" y2="452.2"/>
<line class="st12" x1="226.7" y1="469.6" x2="243.1" y2="459.2"/>
<line class="st12" x1="229.2" y1="480.3" x2="247.6" y2="464.7"/>
<g>
	<defs>
		<rect id="SVGID_00000034809335334890505030000010053176510785158541_" x="113.4" y="113.9" width="488.7" height="526.1"/>
	</defs>
	<clipPath id="SVGID_00000105385918839101136110000004596608756292230291_">
		<use xlink:href="#SVGID_00000034809335334890505030000010053176510785158541_"  style="overflow:visible;"/>
	</clipPath>
	
		<path style="clip-path:url(#SVGID_00000105385918839101136110000004596608756292230291_);fill:none;stroke:#231F20;stroke-width:2;" d="
		M235.9,486.7c0,0,15.3-13.7,20.1-13.8"/>
	
		<path style="clip-path:url(#SVGID_00000105385918839101136110000004596608756292230291_);fill:none;stroke:#231F20;stroke-width:2;" d="
		M241.4,493c0,0,14.5-13.5,18.5-14.1"/>
	
		<path style="clip-path:url(#SVGID_00000105385918839101136110000004596608756292230291_);fill:none;stroke:#231F20;stroke-width:2;" d="
		M248.2,498.1c0,0,12.7-13.2,15.4-14.5"/>
</g>
<line class="st12" x1="255.6" y1="501.5" x2="268" y2="491.2"/>
<line class="st22" x1="257.2" y1="431.4" x2="262.3" y2="436.8"/>
<line class="st22" x1="468.6" y1="463.4" x2="477.2" y2="462.3"/>
<g>
	<defs>
		<rect id="SVGID_00000172400228365731007150000013775042784005261740_" x="113.4" y="113.9" width="488.7" height="526.1"/>
	</defs>
	<clipPath id="SVGID_00000023251834485079174800000016714168595166965919_">
		<use xlink:href="#SVGID_00000172400228365731007150000013775042784005261740_"  style="overflow:visible;"/>
	</clipPath>
	
		<path style="clip-path:url(#SVGID_00000023251834485079174800000016714168595166965919_);fill:none;stroke:#231F20;stroke-width:3;" d="
		M192.4,389.7c0,0,6.7-12.3,2.4-27c5.5,8,12.7,15.3,20-7.4c2.4,25.8,5.8,24.6,18.8,4.9c-4.9,21.5-0.6,29.5,10.9,19"/>
	
		<path style="clip-path:url(#SVGID_00000023251834485079174800000016714168595166965919_);fill:none;stroke:#231F20;stroke-width:2;" d="
		M492,410.9c0,0,11.1-13,13.3-29.1"/>
	
		<path style="clip-path:url(#SVGID_00000023251834485079174800000016714168595166965919_);fill:none;stroke:#231F20;stroke-width:2;" d="
		M505.9,408.2c0,0,4.3-3.6,5.7-15.7"/>
</g>
<text transform="matrix(0.6999 -0.7143 0.7143 0.6999 201.2985 223.9446)" class="st25 st26 st27">P</text>
<text transform="matrix(0.8109 -0.5852 0.5852 0.8109 229.575 195.0113)" class="st25 st26 st28">E</text>
<g>
	<defs>
		<rect id="SVGID_00000169523636815507506020000003275663994786431158_" x="113.4" y="113.9" width="488.7" height="526.1"/>
	</defs>
	<clipPath id="SVGID_00000169551261657879980990000003071077728552081290_">
		<use xlink:href="#SVGID_00000169523636815507506020000003275663994786431158_"  style="overflow:visible;"/>
	</clipPath>
	<g style="clip-path:url(#SVGID_00000169551261657879980990000003071077728552081290_);">
		<text transform="matrix(0.9126 -0.4088 0.4088 0.9126 262.5196 171.4754)" class="st25 st26 st27">D</text>
	</g>
	<g style="clip-path:url(#SVGID_00000169551261657879980990000003071077728552081290_);">
		<text transform="matrix(0.9786 -0.2056 0.2056 0.9786 299.6862 154.8239)" class="st25 st26 st30">A</text>
	</g>
	<g style="clip-path:url(#SVGID_00000169551261657879980990000003071077728552081290_);">
		<text transform="matrix(0.9999 1.387196e-02 -1.387196e-02 0.9999 340.4279 146.1378)" class="st25 st26 st27">L</text>
	</g>
	<g style="clip-path:url(#SVGID_00000169551261657879980990000003071077728552081290_);">
		<text transform="matrix(0.9786 0.2056 -0.2056 0.9786 379.9279 146.4209)" class="st25 st26 st30">B</text>
	</g>
	<g style="clip-path:url(#SVGID_00000169551261657879980990000003071077728552081290_);">
		<text transform="matrix(0.9126 0.4088 -0.4088 0.9126 420.5225 155.0916)" class="st25 st26 st27">O</text>
	</g>
</g>
<text transform="matrix(0.8109 0.5852 -0.5852 0.8109 458.682 172.3815)" class="st25 st26 st28">A</text>
<text transform="matrix(0.6826 0.7308 -0.7308 0.6826 492.3352 196.8162)" class="st25 st26 st28">R</text>
<text transform="matrix(0.5539 0.8326 -0.8326 0.5539 520.6628 227.8467)" class="st25 st26 st27">D</text>
<g>
	<defs>
		<rect id="SVGID_00000087412653895268418070000008982926295279567780_" x="113.4" y="113.9" width="488.7" height="526.1"/>
	</defs>
	<clipPath id="SVGID_00000028288191026113735430000016611264924079326908_">
		<use xlink:href="#SVGID_00000087412653895268418070000008982926295279567780_"  style="overflow:visible;"/>
	</clipPath>
	<g style="clip-path:url(#SVGID_00000028288191026113735430000016611264924079326908_);">
		<text transform="matrix(0.8902 0.4557 -0.4557 0.8902 246.9771 575.7408)" class="st25 st26 st32">B</text>
	</g>
	<g style="clip-path:url(#SVGID_00000028288191026113735430000016611264924079326908_);">
		<text transform="matrix(0.9727 0.2322 -0.2322 0.9727 288.4409 596.8897)" class="st25 st26 st33">U</text>
	</g>
	<g style="clip-path:url(#SVGID_00000028288191026113735430000016611264924079326908_);">
		<text transform="matrix(0.9999 -1.387143e-02 1.387143e-02 0.9999 335.3044 607.8143)" class="st25 st26 st32">D</text>
	</g>
	<g style="clip-path:url(#SVGID_00000028288191026113735430000016611264924079326908_);">
		<text transform="matrix(0.966 -0.2584 0.2584 0.966 382.9271 607.0451)" class="st25 st26 st33">D</text>
	</g>
	<g style="clip-path:url(#SVGID_00000028288191026113735430000016611264924079326908_);">
		<text transform="matrix(0.8902 -0.4557 0.4557 0.8902 426.3668 595.2585)" class="st25 st26 st32">Y</text>
	</g>
</g>
</svg>
