<?xml version="1.0" encoding="utf-8"?>
<!-- Generator: Adobe Illustrator 26.0.3, SVG Export Plug-In . SVG Version: 6.00 Build 0)  -->
<svg version="1.1" id="Layer_1" xmlns="http://www.w3.org/2000/svg" xmlns:xlink="http://www.w3.org/1999/xlink" x="0px" y="0px"
	 viewBox="0 0 720 720" style="enable-background:new 0 0 720 720;" xml:space="preserve">
<style type="text/css">
	.st0{clip-path:url(#SVGID_00000142154626186694502350000011997062873143460500_);fill:none;stroke:#231F20;stroke-width:2;}
	.st1{clip-path:url(#SVGID_00000142154626186694502350000011997062873143460500_);}
	.st2{clip-path:url(#SVGID_00000013911690207938825910000017124897992531489681_);fill:#231F20;}
	.st3{clip-path:url(#SVGID_00000013911690207938825910000017124897992531489681_);fill:none;stroke:#FFFFFF;}
	.st4{clip-path:url(#SVGID_00000013911690207938825910000017124897992531489681_);fill:#020100;}
	.st5{clip-path:url(#SVGID_00000013911690207938825910000017124897992531489681_);fill:none;stroke:#C12B89;stroke-width:2;}
	.st6{clip-path:url(#SVGID_00000142154626186694502350000011997062873143460500_);fill:#C02B89;}
	.st7{clip-path:url(#SVGID_00000162325692328161222700000005785064920731630501_);fill:#231F20;}
	.st8{clip-path:url(#SVGID_00000162325692328161222700000005785064920731630501_);fill:none;stroke:#FFFFFF;stroke-width:2;}
	.st9{clip-path:url(#SVGID_00000162325692328161222700000005785064920731630501_);fill:#D2232A;}
	.st10{opacity:0.8;clip-path:url(#SVGID_00000162325692328161222700000005785064920731630501_);}
	.st11{clip-path:url(#SVGID_00000008838900269593421560000010686970583296697533_);fill:#0C193D;}
	.st12{clip-path:url(#SVGID_00000142154626186694502350000011997062873143460500_);fill:#C12B89;}
	.st13{clip-path:url(#SVGID_00000117661566448658952470000010733671366474019999_);fill:#231F20;}
	.st14{clip-path:url(#SVGID_00000117661566448658952470000010733671366474019999_);fill:none;stroke:#FFFFFF;}
	.st15{clip-path:url(#SVGID_00000117661566448658952470000010733671366474019999_);fill:none;stroke:#231F20;stroke-width:2;}
	.st16{clip-path:url(#SVGID_00000117661566448658952470000010733671366474019999_);fill:#FFFFFF;}
	.st17{clip-path:url(#SVGID_00000142154626186694502350000011997062873143460500_);fill:none;stroke:#FFFFFF;stroke-width:2;}
	.st18{clip-path:url(#SVGID_00000146489916314518746280000007937891675323945604_);fill:none;stroke:#231F20;stroke-width:2;}
	.st19{clip-path:url(#SVGID_00000158730998010428081200000001340969233391305644_);fill:none;stroke:#231F20;stroke-width:2;}
	.st20{clip-path:url(#SVGID_00000142154626186694502350000011997062873143460500_);fill:none;stroke:#231F20;stroke-width:3;}
	.st21{clip-path:url(#SVGID_00000173133405205464883580000000786418743181655477_);fill:none;stroke:#231F20;stroke-width:3;}
	.st22{clip-path:url(#SVGID_00000173133405205464883580000000786418743181655477_);fill:none;stroke:#231F20;stroke-width:2;}
	.st23{fill:#231F20;}
	.st24{font-family:'Blenny-Black';}
	.st25{font-size:51.1926px;}
	.st26{font-size:51.1925px;}
	.st27{clip-path:url(#SVGID_00000182528650371443183240000013337920769986529929_);}
	.st28{font-size:51.1927px;}
	.st29{clip-path:url(#SVGID_00000111155935925754498870000015385849404271158946_);}
	.st30{font-size:57.3357px;}
</style>
<g>
	<defs>
		<rect id="SVGID_1_" x="110.4" y="99.9" width="498.9" height="537.1"/>
	</defs>
	<clipPath id="SVGID_00000059272153138117338550000018206391601984266408_">
		<use xlink:href="#SVGID_1_"  style="overflow:visible;"/>
	</clipPath>
	
		<line style="clip-path:url(#SVGID_00000059272153138117338550000018206391601984266408_);fill:none;stroke:#231F20;stroke-width:2;" x1="201.2" y1="417.4" x2="222.2" y2="409"/>
	<g style="clip-path:url(#SVGID_00000059272153138117338550000018206391601984266408_);">
		<defs>
			<rect id="SVGID_00000055693531147704516870000003542669475915029939_" x="110.4" y="99.9" width="498.9" height="537.1"/>
		</defs>
		<clipPath id="SVGID_00000071520760886722332030000007286642518607101853_">
			<use xlink:href="#SVGID_00000055693531147704516870000003542669475915029939_"  style="overflow:visible;"/>
		</clipPath>
		<path style="clip-path:url(#SVGID_00000071520760886722332030000007286642518607101853_);fill:#231F20;" d="M295.1,343.9
			l-0.6,24.5c0,0-17-2.7-26.2-11.9c-11.8-11.9-12.2-28.4-12.2-28.4l4.7-1.1c0,0-14,3.5-13.4-11.6c-7.8-6-10.1-15.7-7.2-18.5
			c4.2-4,6.9-1.9,6.9-1.9s-0.6-11.9,11.2-8.2c8.7-9.7,22.4-5.6,22.4,13.8c7.5,6.9,4.4,16.9,0,24.5
			C281.4,333.2,282.1,339.8,295.1,343.9"/>
		<path style="clip-path:url(#SVGID_00000071520760886722332030000007286642518607101853_);fill:none;stroke:#FFFFFF;" d="
			M295.1,343.9l-0.6,24.5c0,0-17-2.7-26.2-11.9c-11.8-11.9-12.2-28.4-12.2-28.4l4.7-1.1c0,0-14,3.5-13.4-11.6
			c-7.8-6-10.1-15.7-7.2-18.5c4.2-4,6.9-1.9,6.9-1.9s-0.6-11.9,11.2-8.2c8.7-9.7,22.4-5.6,22.4,13.8c7.5,6.9,4.4,16.9,0,24.5
			C281.4,333.2,282.1,339.8,295.1,343.9z"/>
		<path style="clip-path:url(#SVGID_00000071520760886722332030000007286642518607101853_);fill:#231F20;" d="M264.1,321.2
			c0,0-10.1-9.7,6.5-14.3c-13.8,5.2-16.6-4.3-9.2-7.6c8.7-3.9,19.4,0.9,19.4,0.9"/>
		<path style="clip-path:url(#SVGID_00000071520760886722332030000007286642518607101853_);fill:none;stroke:#FFFFFF;" d="
			M264.1,321.2c0,0-10.1-9.7,6.5-14.3c-13.8,5.2-16.6-4.3-9.2-7.6c8.7-3.9,19.4,0.9,19.4,0.9"/>
		<path style="clip-path:url(#SVGID_00000071520760886722332030000007286642518607101853_);fill:#231F20;" d="M269.1,289.2
			c0,0,0.5,4.8,0.4,6.8"/>
		<path style="clip-path:url(#SVGID_00000071520760886722332030000007286642518607101853_);fill:none;stroke:#FFFFFF;" d="
			M269.1,289.2c0,0,0.5,4.8,0.4,6.8"/>
		<path style="clip-path:url(#SVGID_00000071520760886722332030000007286642518607101853_);fill:#231F20;" d="M258.6,286.1
			c0,0-0.1,9.7,1.2,11.5"/>
		<path style="clip-path:url(#SVGID_00000071520760886722332030000007286642518607101853_);fill:none;stroke:#FFFFFF;" d="
			M258.6,286.1c0,0-0.1,9.7,1.2,11.5"/>
		<path style="clip-path:url(#SVGID_00000071520760886722332030000007286642518607101853_);fill:#231F20;" d="M247.1,293.8
			c0,0,2.7,19.5,12.5,14.6"/>
		<path style="clip-path:url(#SVGID_00000071520760886722332030000007286642518607101853_);fill:none;stroke:#FFFFFF;" d="
			M247.1,293.8c0,0,2.7,19.5,12.5,14.6"/>
		<path style="clip-path:url(#SVGID_00000071520760886722332030000007286642518607101853_);fill:#231F20;" d="M246.6,314.2
			c0,0,5.8-0.6,7-4"/>
		<path style="clip-path:url(#SVGID_00000071520760886722332030000007286642518607101853_);fill:none;stroke:#FFFFFF;" d="
			M246.6,314.2c0,0,5.8-0.6,7-4"/>
		<path style="clip-path:url(#SVGID_00000071520760886722332030000007286642518607101853_);fill:#020100;" d="M318.2,220.6
			c-13.6,0-24.6,11-24.6,24.6v203.3c0,13.6,11,24.6,24.6,24.6h101.4c13.6,0,24.6-11,24.6-24.6V245.2c0-13.6-11-24.6-24.6-24.6H318.2
			z"/>
		
			<path style="clip-path:url(#SVGID_00000071520760886722332030000007286642518607101853_);fill:none;stroke:#C12B89;stroke-width:2;" d="
			M318.2,220.6c-13.6,0-24.6,11-24.6,24.6v203.3c0,13.6,11,24.6,24.6,24.6h101.4c13.6,0,24.6-11,24.6-24.6V245.2
			c0-13.6-11-24.6-24.6-24.6H318.2z"/>
	</g>
	
		<rect x="306.6" y="235.6" style="clip-path:url(#SVGID_00000059272153138117338550000018206391601984266408_);fill:#C02B89;" width="124.6" height="221.7"/>
	<g style="clip-path:url(#SVGID_00000059272153138117338550000018206391601984266408_);">
		<defs>
			<rect id="SVGID_00000147914759547067382150000005337366707590710949_" x="110.4" y="99.9" width="498.9" height="537.1"/>
		</defs>
		<clipPath id="SVGID_00000095338879981973183750000004255027374712159390_">
			<use xlink:href="#SVGID_00000147914759547067382150000005337366707590710949_"  style="overflow:visible;"/>
		</clipPath>
		<path style="clip-path:url(#SVGID_00000095338879981973183750000004255027374712159390_);fill:#231F20;" d="M339,285.4
			c7.4,0,13.3-6,13.3-13.3c0-7.4-6-13.3-13.3-13.3c-7.4,0-13.3,6-13.3,13.3C325.7,279.5,331.7,285.4,339,285.4"/>
		
			<path style="clip-path:url(#SVGID_00000095338879981973183750000004255027374712159390_);fill:none;stroke:#FFFFFF;stroke-width:2;" d="
			M339,285.4c7.4,0,13.3-6,13.3-13.3c0-7.4-6-13.3-13.3-13.3c-7.4,0-13.3,6-13.3,13.3C325.7,279.5,331.7,285.4,339,285.4z"/>
		<path style="clip-path:url(#SVGID_00000095338879981973183750000004255027374712159390_);fill:#231F20;" d="M402.7,286
			c7.4,0,13.3-6,13.3-13.3c0-7.4-6-13.3-13.3-13.3c-7.4,0-13.3,6-13.3,13.3C389.4,280,395.3,286,402.7,286"/>
		
			<path style="clip-path:url(#SVGID_00000095338879981973183750000004255027374712159390_);fill:none;stroke:#FFFFFF;stroke-width:2;" d="
			M402.7,286c7.4,0,13.3-6,13.3-13.3c0-7.4-6-13.3-13.3-13.3c-7.4,0-13.3,6-13.3,13.3C389.4,280,395.3,286,402.7,286z"/>
		<path style="clip-path:url(#SVGID_00000095338879981973183750000004255027374712159390_);fill:#231F20;" d="M371.3,326.3
			c7.4,0,13.3-6,13.3-13.3s-6-13.3-13.3-13.3s-13.3,6-13.3,13.3S364,326.3,371.3,326.3"/>
		
			<path style="clip-path:url(#SVGID_00000095338879981973183750000004255027374712159390_);fill:none;stroke:#FFFFFF;stroke-width:2;" d="
			M371.3,326.3c7.4,0,13.3-6,13.3-13.3s-6-13.3-13.3-13.3s-13.3,6-13.3,13.3S364,326.3,371.3,326.3z"/>
		<path style="clip-path:url(#SVGID_00000095338879981973183750000004255027374712159390_);fill:#D2232A;" d="M370.4,257.6
			c4.9,0,8.9-4,8.9-8.9c0-4.9-4-8.8-8.9-8.8c-4.9,0-8.9,4-8.9,8.8C361.6,253.7,365.5,257.6,370.4,257.6"/>
		
			<path style="clip-path:url(#SVGID_00000095338879981973183750000004255027374712159390_);fill:none;stroke:#FFFFFF;stroke-width:2;" d="
			M370.4,257.6c4.9,0,8.9-4,8.9-8.9c0-4.9-4-8.8-8.9-8.8c-4.9,0-8.9,4-8.9,8.8C361.6,253.7,365.5,257.6,370.4,257.6z"/>
		<g style="opacity:0.8;clip-path:url(#SVGID_00000095338879981973183750000004255027374712159390_);">
			<g>
				<defs>
					<rect id="SVGID_00000031168456453353450610000013819906465618756758_" x="301.6" y="329" width="134.6" height="121.5"/>
				</defs>
				<clipPath id="SVGID_00000058566607444602557410000011474424832821188754_">
					<use xlink:href="#SVGID_00000031168456453353450610000013819906465618756758_"  style="overflow:visible;"/>
				</clipPath>
				
					<rect x="320.1" y="343.3" style="clip-path:url(#SVGID_00000058566607444602557410000011474424832821188754_);fill:#0C193D;" width="97.7" height="105.2"/>
			</g>
		</g>
	</g>
	
		<rect x="355.3" y="407.5" style="clip-path:url(#SVGID_00000059272153138117338550000018206391601984266408_);fill:#C12B89;" width="29" height="29"/>
	<g style="clip-path:url(#SVGID_00000059272153138117338550000018206391601984266408_);">
		<defs>
			<rect id="SVGID_00000057127694993032028030000018121026892139315879_" x="110.4" y="99.9" width="498.9" height="537.1"/>
		</defs>
		<clipPath id="SVGID_00000148630292695781182400000011273602425549136826_">
			<use xlink:href="#SVGID_00000057127694993032028030000018121026892139315879_"  style="overflow:visible;"/>
		</clipPath>
		<path style="clip-path:url(#SVGID_00000148630292695781182400000011273602425549136826_);fill:#231F20;" d="M427.8,307.2
			c0,0-10.7,12.5-4.4,20.1c6.3,7.5,14.3,3.3,19.7-1.3c10-8.5,17.9-2.5,15.3,5.3c-3.8,12-12.8,39.8,4.7,30.1
			c2.5,9.4,12.8,8.5,14.1,0.9c4.4,5.6,11.5,11.8,16.3-3.1c3.5-11-3.8-17.5-6.3-13.8c-2.5,3.8-1.3,12.5-1.3,12.5s1.9-15.7-5.6-17.5
			c0.6-11.9,5.6-36.1-11.9-43.9C442.3,284.9,427.8,307.2,427.8,307.2"/>
		<path style="clip-path:url(#SVGID_00000148630292695781182400000011273602425549136826_);fill:none;stroke:#FFFFFF;" d="
			M427.8,307.2c0,0-10.7,12.5-4.4,20.1c6.3,7.5,14.3,3.3,19.7-1.3c10-8.5,17.9-2.5,15.3,5.3c-3.8,12-12.8,39.8,4.7,30.1
			c2.5,9.4,12.8,8.5,14.1,0.9c4.4,5.6,11.5,11.8,16.3-3.1c3.5-11-3.8-17.5-6.3-13.8c-2.5,3.8-1.3,12.5-1.3,12.5s1.9-15.7-5.6-17.5
			c0.6-11.9,5.6-36.1-11.9-43.9C442.3,284.9,427.8,307.2,427.8,307.2z"/>
		
			<path style="clip-path:url(#SVGID_00000148630292695781182400000011273602425549136826_);fill:none;stroke:#231F20;stroke-width:2;" d="
			M484.9,482.1c0,0-35.7-5.2-33.9,21.9c4.9,5.5,33.5,10.5,50.1-8.9c10.4-14.2,1.8-23.7,1.8-23.7s12.2-30.2-4.9-34.5
			c-17.1,0.6-18.6,2.2-19.6,2.8c-1,0.6-6.4,2.8-7.3,2.8c7.3,5.9,0.2,31.1,0.2,31.1s5.3,0.4,5.3,4c-0.1,4.3-1.6,4-1.6,4L484.9,482.1z
			"/>
		
			<path style="clip-path:url(#SVGID_00000148630292695781182400000011273602425549136826_);fill:none;stroke:#231F20;stroke-width:2;" d="
			M450.5,505.4l-0.3,5c0,0,3.5,10.6,31.5,5.6c28-5,30.7-18.9,31.6-21.7c0.9-2.8,4.2-13-3.7-26.3c5.8-3.4,6.8-8,5.8-15.2
			c-0.9-7.1-1.2-19-12.3-18.7c-3.7,0.4-4.2,1.9-4.2,1.9s16.7,6.9,5.4,34.4c3.7,6.8,5.4,15.1-1.2,24.8
			C496.5,505,480,514.7,450.5,505.4z"/>
		
			<path style="clip-path:url(#SVGID_00000148630292695781182400000011273602425549136826_);fill:none;stroke:#231F20;stroke-width:2;" d="
			M467.8,442.6c0,0,7,1.5,0.5,29.8c-7.8-0.3-8.3-1.2-8.3-1.2s-3.5-15.3,0.8-27.7C464.5,444,468.3,442.6,467.8,442.6z"/>
		<path style="clip-path:url(#SVGID_00000148630292695781182400000011273602425549136826_);fill:#231F20;" d="M483,471.7
			c0.8-0.5,0.8-1.8,0.2-2.9c-0.6-1.1-1.8-1.6-2.5-1.1c-0.8,0.5-0.8,1.8-0.2,2.9C481.2,471.7,482.3,472.2,483,471.7"/>
		
			<path style="clip-path:url(#SVGID_00000148630292695781182400000011273602425549136826_);fill:none;stroke:#231F20;stroke-width:2;" d="
			M483,471.7c0.8-0.5,0.8-1.8,0.2-2.9c-0.6-1.1-1.8-1.6-2.5-1.1c-0.8,0.5-0.8,1.8-0.2,2.9C481.2,471.7,482.3,472.2,483,471.7z"/>
		<path style="clip-path:url(#SVGID_00000148630292695781182400000011273602425549136826_);fill:#231F20;" d="M486.9,483.1
			c0.8,0,1.5-1.3,1.5-2.8c0-1.6-0.7-2.9-1.5-2.9c-0.8,0-1.5,1.3-1.5,2.9C485.4,481.8,486.1,483.1,486.9,483.1"/>
		
			<path style="clip-path:url(#SVGID_00000148630292695781182400000011273602425549136826_);fill:none;stroke:#231F20;stroke-width:2;" d="
			M486.9,483.1c0.8,0,1.5-1.3,1.5-2.8c0-1.6-0.7-2.9-1.5-2.9c-0.8,0-1.5,1.3-1.5,2.9C485.4,481.8,486.1,483.1,486.9,483.1z"/>
		<path style="clip-path:url(#SVGID_00000148630292695781182400000011273602425549136826_);fill:#231F20;" d="M458,467.2
			c0,0-38.2-5.1-44.9-25.1c-6.7-20,10.7-16.9,11.1-16.9c0.5,0,3.2,0,13,8c9.9,8,21,9.9,21,9.9S456.1,460.5,458,467.2"/>
		
			<path style="clip-path:url(#SVGID_00000148630292695781182400000011273602425549136826_);fill:none;stroke:#231F20;stroke-width:2;" d="
			M213.1,407.2c0,0-26.8,11.2-3.1,48c11.4,20.9,22.2,25.5,22.2,25.5l-3.1,2.8c0,0,25.9,37.7,41.3,27.4
			c15.4-10.3-15.4-33.3-21.9-44.8C242.1,454.6,235.6,400.1,213.1,407.2z"/>
		
			<path style="clip-path:url(#SVGID_00000148630292695781182400000011273602425549136826_);fill:none;stroke:#231F20;stroke-width:2;" d="
			M213.9,406.5c0,0,18-12.2,25.4,10c7.4,22.1,9.6,37.4,12.4,42s10.8,14.6,19.8,21.8c6.2,4.9,12.6,16.9,5,25.5c-5.1,5.8-4,3.7-4,3.7
			s9.9-5.5-2.5-20.5c-12.4-14.9-19.5-21.8-19.5-21.8s-3.4-1.9-11.5-33.6S213.9,406.5,213.9,406.5z"/>
		
			<path style="clip-path:url(#SVGID_00000148630292695781182400000011273602425549136826_);fill:none;stroke:#231F20;stroke-width:2;" d="
			M234.9,404.9c2.2-2.1,20.2,2.5,22.3,16.9c2.1,14.4,2.7,26.6,8.7,28.4c-4.5-4.9-4.2-9.5-4.2-9.5l6.9-4.3l23.9,23.2
			c0,0-2.7,1.4-2.7,5.5c0,4.1-2.7,19.4-9.2,26.4c-3-11.9-19-22.7-24.2-31C249.9,457.9,243.2,411.4,234.9,404.9z"/>
		<path style="clip-path:url(#SVGID_00000148630292695781182400000011273602425549136826_);fill:#231F20;" d="M273.1,454.5
			c1.4,0,2.4-1.3,2.4-2.8c0-1.6-1.1-2.9-2.4-2.9c-1.4,0-2.4,1.3-2.4,2.9C270.6,453.2,271.7,454.5,273.1,454.5"/>
		
			<path style="clip-path:url(#SVGID_00000148630292695781182400000011273602425549136826_);fill:none;stroke:#231F20;stroke-width:2;" d="
			M273.1,454.5c1.4,0,2.4-1.3,2.4-2.8c0-1.6-1.1-2.9-2.4-2.9c-1.4,0-2.4,1.3-2.4,2.9C270.6,453.2,271.7,454.5,273.1,454.5z"/>
		<path style="clip-path:url(#SVGID_00000148630292695781182400000011273602425549136826_);fill:#FFFFFF;" d="M271.8,437l4.3-5.6
			c0,0,17.1,8.5,20.5,20.6c-2.9,3.7-3.4,4.5-3.4,4.5L271.8,437z"/>
		
			<path style="clip-path:url(#SVGID_00000148630292695781182400000011273602425549136826_);fill:none;stroke:#231F20;stroke-width:2;" d="
			M271.8,437l4.3-5.6c0,0,17.1,8.5,20.5,20.6c-2.9,3.7-3.4,4.5-3.4,4.5L271.8,437z"/>
		<path style="clip-path:url(#SVGID_00000148630292695781182400000011273602425549136826_);fill:#231F20;" d="M279.2,431.1
			c0,0,7.6-21.2,17.2-27.2c9.5-6,13.4-5.7,20.4-2.5c7,3.2,26.7,24.5,21.5,34c-5.3,9.5-21.8,13.4-31.3-10.5c-1.3,7.6-5.4,13-5.4,13
			l-6,7C295.4,444.9,285.2,433.4,279.2,431.1"/>
	</g>
	
		<line style="clip-path:url(#SVGID_00000059272153138117338550000018206391601984266408_);fill:none;stroke:#FFFFFF;stroke-width:2;" x1="354" y1="273.4" x2="339" y2="273.4"/>
	
		<line style="clip-path:url(#SVGID_00000059272153138117338550000018206391601984266408_);fill:none;stroke:#FFFFFF;stroke-width:2;" x1="387.8" y1="273.9" x2="402.7" y2="273.9"/>
	
		<line style="clip-path:url(#SVGID_00000059272153138117338550000018206391601984266408_);fill:none;stroke:#FFFFFF;stroke-width:2;" x1="371.2" y1="298.2" x2="371.2" y2="313.2"/>
	<g style="clip-path:url(#SVGID_00000059272153138117338550000018206391601984266408_);">
		<defs>
			<rect id="SVGID_00000155857759670803135450000015096926380582637972_" x="110.4" y="99.9" width="498.9" height="537.1"/>
		</defs>
		<clipPath id="SVGID_00000034066626094366776750000007422551516615484809_">
			<use xlink:href="#SVGID_00000155857759670803135450000015096926380582637972_"  style="overflow:visible;"/>
		</clipPath>
		
			<path style="clip-path:url(#SVGID_00000034066626094366776750000007422551516615484809_);fill:none;stroke:#231F20;stroke-width:2;" d="
			M199,429.2c0,0,26.4-12.7,31.3-12.7"/>
		
			<path style="clip-path:url(#SVGID_00000034066626094366776750000007422551516615484809_);fill:none;stroke:#231F20;stroke-width:2;" d="
			M201.3,437.6c0,0,30.6-13.6,33.7-13.6"/>
	</g>
	
		<line style="clip-path:url(#SVGID_00000059272153138117338550000018206391601984266408_);fill:none;stroke:#231F20;stroke-width:2;" x1="206" y1="446.6" x2="236.6" y2="431.7"/>
	
		<line style="clip-path:url(#SVGID_00000059272153138117338550000018206391601984266408_);fill:none;stroke:#231F20;stroke-width:2;" x1="211" y1="454.7" x2="239.6" y2="439"/>
	
		<line style="clip-path:url(#SVGID_00000059272153138117338550000018206391601984266408_);fill:none;stroke:#231F20;stroke-width:2;" x1="215.8" y1="462.4" x2="241" y2="446.6"/>
	
		<line style="clip-path:url(#SVGID_00000059272153138117338550000018206391601984266408_);fill:none;stroke:#231F20;stroke-width:2;" x1="220.6" y1="470" x2="243.1" y2="454.8"/>
	
		<line style="clip-path:url(#SVGID_00000059272153138117338550000018206391601984266408_);fill:none;stroke:#231F20;stroke-width:2;" x1="226.4" y1="474.9" x2="246.4" y2="462.3"/>
	
		<line style="clip-path:url(#SVGID_00000059272153138117338550000018206391601984266408_);fill:none;stroke:#231F20;stroke-width:2;" x1="232.9" y1="479.6" x2="249.3" y2="469.4"/>
	
		<line style="clip-path:url(#SVGID_00000059272153138117338550000018206391601984266408_);fill:none;stroke:#231F20;stroke-width:2;" x1="235.5" y1="490.3" x2="253.8" y2="474.8"/>
	<g style="clip-path:url(#SVGID_00000059272153138117338550000018206391601984266408_);">
		<defs>
			<rect id="SVGID_00000101810241850201041800000011404995373121701548_" x="110.4" y="99.9" width="498.9" height="537.1"/>
		</defs>
		<clipPath id="SVGID_00000018941117367384167030000012336153832840242085_">
			<use xlink:href="#SVGID_00000101810241850201041800000011404995373121701548_"  style="overflow:visible;"/>
		</clipPath>
		
			<path style="clip-path:url(#SVGID_00000018941117367384167030000012336153832840242085_);fill:none;stroke:#231F20;stroke-width:2;" d="
			M242.2,496.7c0,0,15.3-13.6,20-13.7"/>
		
			<path style="clip-path:url(#SVGID_00000018941117367384167030000012336153832840242085_);fill:none;stroke:#231F20;stroke-width:2;" d="
			M247.6,503.1c0,0,14.5-13.4,18.4-14"/>
		
			<path style="clip-path:url(#SVGID_00000018941117367384167030000012336153832840242085_);fill:none;stroke:#231F20;stroke-width:2;" d="
			M254.4,508.1c0,0,12.7-13.1,15.3-14.4"/>
	</g>
	
		<line style="clip-path:url(#SVGID_00000059272153138117338550000018206391601984266408_);fill:none;stroke:#231F20;stroke-width:2;" x1="261.8" y1="511.5" x2="274.1" y2="501.3"/>
	
		<line style="clip-path:url(#SVGID_00000059272153138117338550000018206391601984266408_);fill:none;stroke:#231F20;stroke-width:3;" x1="263.4" y1="441.6" x2="268.4" y2="446.9"/>
	
		<line style="clip-path:url(#SVGID_00000059272153138117338550000018206391601984266408_);fill:none;stroke:#231F20;stroke-width:3;" x1="474.5" y1="473.4" x2="483.1" y2="472.5"/>
	<g style="clip-path:url(#SVGID_00000059272153138117338550000018206391601984266408_);">
		<defs>
			<rect id="SVGID_00000041984234583081253740000014733469480690073273_" x="110.4" y="99.9" width="498.9" height="537.1"/>
		</defs>
		<clipPath id="SVGID_00000089561163820245485140000013794557016941556864_">
			<use xlink:href="#SVGID_00000041984234583081253740000014733469480690073273_"  style="overflow:visible;"/>
		</clipPath>
		
			<path style="clip-path:url(#SVGID_00000089561163820245485140000013794557016941556864_);fill:none;stroke:#231F20;stroke-width:3;" d="
			M198.8,399.9c0,0,6.7-12.2,2.4-26.9c5.4,8,12.7,15.3,20-7.3c2.4,25.7,5.7,24.5,18.8,4.9c-4.8,21.4-0.6,29.4,10.9,19"/>
		
			<path style="clip-path:url(#SVGID_00000089561163820245485140000013794557016941556864_);fill:none;stroke:#231F20;stroke-width:2;" d="
			M497.9,421c0,0,11-13,13.2-29.1"/>
		
			<path style="clip-path:url(#SVGID_00000089561163820245485140000013794557016941556864_);fill:none;stroke:#231F20;stroke-width:2;" d="
			M511.8,418.4c0,0,4.2-3.6,5.6-15.6"/>
	</g>
	<g style="clip-path:url(#SVGID_00000059272153138117338550000018206391601984266408_);">
		<text transform="matrix(0.6999 -0.7143 0.7143 0.6999 200.1814 212.2021)" class="st23 st24 st25">P</text>
	</g>
	<g style="clip-path:url(#SVGID_00000059272153138117338550000018206391601984266408_);">
		<text transform="matrix(0.8109 -0.5852 0.5852 0.8109 229.0452 182.7512)" class="st23 st24 st26">E</text>
	</g>
	<g style="clip-path:url(#SVGID_00000059272153138117338550000018206391601984266408_);">
		<defs>
			<rect id="SVGID_00000045595323701378632310000015408934835467870358_" x="110.4" y="99.9" width="498.9" height="537.1"/>
		</defs>
		<clipPath id="SVGID_00000043444282129051536260000012299253756551219102_">
			<use xlink:href="#SVGID_00000045595323701378632310000015408934835467870358_"  style="overflow:visible;"/>
		</clipPath>
		<g style="clip-path:url(#SVGID_00000043444282129051536260000012299253756551219102_);">
			<text transform="matrix(0.9126 -0.4088 0.4088 0.9126 262.6215 158.6353)" class="st23 st24 st25">D</text>
		</g>
		<g style="clip-path:url(#SVGID_00000043444282129051536260000012299253756551219102_);">
			<text transform="matrix(0.9786 -0.2056 0.2056 0.9786 300.5838 141.6366)" class="st23 st24 st28">A</text>
		</g>
		<g style="clip-path:url(#SVGID_00000043444282129051536260000012299253756551219102_);">
			<text transform="matrix(0.9999 1.387000e-02 -1.387000e-02 0.9999 342.1558 132.7645)" class="st23 st24 st25">L</text>
		</g>
		<g style="clip-path:url(#SVGID_00000043444282129051536260000012299253756551219102_);">
			<text transform="matrix(0.9786 0.2056 -0.2056 0.9786 382.4565 133.1037)" class="st23 st24 st28">B</text>
		</g>
		<g style="clip-path:url(#SVGID_00000043444282129051536260000012299253756551219102_);">
			<text transform="matrix(0.9126 0.4088 -0.4088 0.9126 423.8983 141.9387)" class="st23 st24 st25">O</text>
		</g>
	</g>
	<g style="clip-path:url(#SVGID_00000059272153138117338550000018206391601984266408_);">
		<text transform="matrix(0.8109 0.5852 -0.5852 0.8109 462.9482 159.6441)" class="st23 st24 st26">A</text>
	</g>
	<g style="clip-path:url(#SVGID_00000059272153138117338550000018206391601984266408_);">
		<text transform="matrix(0.6826 0.7308 -0.7308 0.6826 497.2722 184.6048)" class="st23 st24 st25">R</text>
	</g>
	<g style="clip-path:url(#SVGID_00000059272153138117338550000018206391601984266408_);">
		<text transform="matrix(0.5539 0.8326 -0.8326 0.5539 526.1844 216.2691)" class="st23 st24 st25">D</text>
	</g>
	<g style="clip-path:url(#SVGID_00000059272153138117338550000018206391601984266408_);">
		<defs>
			<rect id="SVGID_00000039134457498841753280000001150518998119541174_" x="110.4" y="99.9" width="498.9" height="537.1"/>
		</defs>
		<clipPath id="SVGID_00000132781174224816467280000012012325546371314054_">
			<use xlink:href="#SVGID_00000039134457498841753280000001150518998119541174_"  style="overflow:visible;"/>
		</clipPath>
		<g style="clip-path:url(#SVGID_00000132781174224816467280000012012325546371314054_);">
			<text transform="matrix(0.8902 0.4557 -0.4557 0.8902 246.7336 571.3775)" class="st23 st24 st30">B</text>
		</g>
		<g style="clip-path:url(#SVGID_00000132781174224816467280000012012325546371314054_);">
			<text transform="matrix(0.9727 0.2322 -0.2322 0.9727 289.1053 592.9857)" class="st23 st24 st30">U</text>
		</g>
		<g style="clip-path:url(#SVGID_00000132781174224816467280000012012325546371314054_);">
			<text transform="matrix(0.9999 -1.387000e-02 1.387000e-02 0.9999 336.9003 604.1187)" class="st23 st24 st30">D</text>
		</g>
		<g style="clip-path:url(#SVGID_00000132781174224816467280000012012325546371314054_);">
			<text transform="matrix(0.966 -0.2584 0.2584 0.966 385.547 603.4081)" class="st23 st24 st30">D</text>
		</g>
		<g style="clip-path:url(#SVGID_00000132781174224816467280000012012325546371314054_);">
			<text transform="matrix(0.8902 -0.4557 0.4557 0.8902 429.888 591.2847)" class="st23 st24 st30">Y</text>
		</g>
	</g>
</g>
</svg>
